<?xml version="1.0" encoding="utf-8"?>
<!-- Generator: Adobe Illustrator 27.9.1, SVG Export Plug-In . SVG Version: 6.00 Build 0)  -->
<svg version="1.1" xmlns="http://www.w3.org/2000/svg" xmlns:xlink="http://www.w3.org/1999/xlink" x="0px" y="0px"
	 viewBox="0 0 792 612" style="enable-background:new 0 0 792 612;" xml:space="preserve">
<style type="text/css">
	.st0{display:none;}
	.st1{fill:#FFFFFF;}
	.st2{fill:none;stroke:#808080;stroke-miterlimit:10;}
	.st3{fill:none;stroke:#808080;stroke-miterlimit:10;stroke-dasharray:3.6732,2.1637;}
	.st4{fill:none;stroke:#CFD0CF;stroke-width:0.75;stroke-miterlimit:10;}
	.st5{fill:none;stroke:#CFD0CF;stroke-width:0.75;stroke-miterlimit:10;stroke-dasharray:1.9926,0.9963;}
	.st6{fill:none;stroke:#000000;stroke-miterlimit:10;}
	.st7{fill:none;stroke:#CFD0CF;stroke-width:0.75;stroke-miterlimit:10;stroke-dasharray:2,1;}
	.st8{fill:none;stroke:#000000;stroke-width:0.75;stroke-miterlimit:10;}
	.st9{fill:none;stroke:#FBAD1D;stroke-width:2;stroke-miterlimit:10;}
	.st10{fill:none;stroke:#000000;stroke-width:0.6894;stroke-linejoin:round;stroke-miterlimit:1;}
	.st11{fill:none;stroke:#000000;stroke-width:0.75;stroke-linejoin:round;stroke-miterlimit:1;}
</style>
<g id="Layer_1" class="st0">
	
		<image style="display:inline;overflow:visible;" width="1979" height="1180" xlink:href="PF-v-H.png"  transform="matrix(0.36 0 0 0.36 44 98)">
	</image>
</g>
<g id="Layer_2">
	<rect class="st1" width="792" height="612"/>
	<g>
		<g>
			<line class="st2" x1="370.3" y1="122.6" x2="370.3" y2="124.4"/>
			<line class="st3" x1="370.3" y1="126.5" x2="370.3" y2="481.5"/>
			<line class="st2" x1="370.3" y1="482.6" x2="370.3" y2="484.4"/>
		</g>
	</g>
	<g>
		<g>
			<line class="st2" x1="574.9" y1="122.6" x2="574.9" y2="124.4"/>
			<line class="st3" x1="574.9" y1="126.5" x2="574.9" y2="481.5"/>
			<line class="st2" x1="574.9" y1="482.6" x2="574.9" y2="484.4"/>
		</g>
	</g>
	<g>
		<g>
			<line class="st4" x1="136.1" y1="122.8" x2="136.1" y2="123.8"/>
			<line class="st5" x1="136.1" y1="124.8" x2="137.1" y2="482.9"/>
			<line class="st4" x1="137.1" y1="483.4" x2="137.1" y2="484.4"/>
		</g>
	</g>
	<g>
		<g>
			<line class="st4" x1="253" y1="122.8" x2="253" y2="123.8"/>
			<line class="st5" x1="253" y1="124.8" x2="254" y2="482.9"/>
			<line class="st4" x1="254" y1="483.4" x2="254" y2="484.4"/>
		</g>
	</g>
	<g>
		<g>
			<line class="st4" x1="486.7" y1="122.8" x2="486.7" y2="123.8"/>
			<line class="st5" x1="486.7" y1="124.8" x2="487.7" y2="482.9"/>
			<line class="st4" x1="487.7" y1="483.4" x2="487.7" y2="484.4"/>
		</g>
	</g>
	<g>
		<g>
			<line class="st4" x1="603.6" y1="122.8" x2="603.6" y2="123.8"/>
			<line class="st5" x1="603.6" y1="124.8" x2="604.6" y2="482.9"/>
			<line class="st4" x1="604.6" y1="483.4" x2="604.6" y2="484.4"/>
		</g>
	</g>
	<g>
		<g>
			<line class="st4" x1="720.4" y1="122.8" x2="720.4" y2="123.8"/>
			<line class="st5" x1="720.4" y1="124.8" x2="721.4" y2="482.9"/>
			<line class="st4" x1="721.4" y1="483.4" x2="721.4" y2="484.4"/>
		</g>
	</g>
	<line class="st6" x1="107.5" y1="321.4" x2="750.3" y2="321.4"/>
	<line class="st7" x1="107.5" y1="458.7" x2="750.3" y2="458.7"/>
	<line class="st7" x1="107.5" y1="412.9" x2="750.3" y2="412.9"/>
	<line class="st7" x1="107.5" y1="367.2" x2="750.3" y2="367.2"/>
	<line class="st7" x1="107.5" y1="275.6" x2="750.3" y2="275.6"/>
	<line class="st7" x1="107.5" y1="229.9" x2="750.3" y2="229.9"/>
	<line class="st7" x1="107.5" y1="184.1" x2="750.3" y2="184.1"/>
	<line class="st7" x1="107.5" y1="138.3" x2="750.3" y2="138.3"/>
	<line class="st8" x1="107.5" y1="138.3" x2="111" y2="138.3"/>
	<line class="st8" x1="107.5" y1="184.1" x2="111" y2="184.1"/>
	<line class="st8" x1="107.5" y1="229.9" x2="111" y2="229.9"/>
	<line class="st8" x1="107.5" y1="275.6" x2="111" y2="275.6"/>
	<line class="st8" x1="107.5" y1="367.2" x2="111" y2="367.2"/>
	<line class="st8" x1="107.5" y1="412.9" x2="111" y2="412.9"/>
	<line class="st8" x1="107.5" y1="458.7" x2="111" y2="458.7"/>
	<line class="st8" x1="137.1" y1="484.4" x2="137.1" y2="481"/>
	<line class="st8" x1="254" y1="484.4" x2="254" y2="481"/>
	<line class="st8" x1="370.3" y1="484.4" x2="370.3" y2="481"/>
	<line class="st8" x1="487.7" y1="484.4" x2="487.7" y2="481"/>
	<line class="st8" x1="604.6" y1="484.4" x2="604.6" y2="481"/>
	<line class="st8" x1="721.4" y1="484.4" x2="721.4" y2="481"/>
	<polyline class="st6" points="107.5,121.8 107.5,484.4 750.3,484.4 	"/>
	<g>
		<path d="M50.4,355.6h4.1v-4.7h-4.1v-1.3h9.8v1.3h-4.6v4.7h4.6v1.3h-9.8V355.6z"/>
		<path d="M58.5,342.5c0.6,0,1.2,0,1.7-0.1v1.1l-0.9,0.1v0c0.6,0.4,1,1.1,1,2.1c0,1.4-1,2.1-2,2.1c-1.7,0-2.6-1.5-2.6-4.2h-0.1
			c-0.6,0-1.6,0.2-1.6,1.6c0,0.7,0.2,1.3,0.5,1.8l-0.9,0.3c-0.4-0.6-0.6-1.4-0.6-2.3c0-2.1,1.5-2.7,2.9-2.7H58.5z M56.6,343.8
			c0,1.4,0.2,3,1.6,3c0.8,0,1.2-0.6,1.2-1.2c0-0.9-0.6-1.5-1.2-1.7c-0.1,0-0.3-0.1-0.4-0.1H56.6z"/>
		<path d="M55.5,340.5c-0.9,0-1.6,0-2.3,0.1v-1.1l1.2-0.1v0c-0.9-0.5-1.3-1.3-1.3-2.5c0-1.7,1.4-3,3.6-3c2.5,0,3.8,1.6,3.8,3.2
			c0,0.9-0.4,1.7-1.1,2.2v0h3.8v1.3H55.5z M57.4,339.2c0.2,0,0.4,0,0.5-0.1c0.9-0.2,1.5-1,1.5-1.9c0-1.3-1.1-2.1-2.7-2.1
			c-1.4,0-2.6,0.7-2.6,2.1c0,0.9,0.6,1.7,1.6,1.9c0.2,0,0.3,0.1,0.5,0.1H57.4z"/>
		<path d="M55.5,332.2c-0.9,0-1.6,0-2.3,0.1v-1.1l1.2-0.1v0c-0.9-0.5-1.3-1.3-1.3-2.5c0-1.7,1.4-3,3.6-3c2.5,0,3.8,1.6,3.8,3.2
			c0,0.9-0.4,1.7-1.1,2.2v0h3.8v1.3H55.5z M57.4,331c0.2,0,0.4,0,0.5-0.1c0.9-0.2,1.5-1,1.5-1.9c0-1.3-1.1-2.1-2.7-2.1
			c-1.4,0-2.6,0.7-2.6,2.1c0,0.9,0.6,1.7,1.6,1.9c0.2,0,0.3,0.1,0.5,0.1H57.4z"/>
		<path d="M51.2,322.6c0.4,0,0.8,0.3,0.8,0.8c0,0.5-0.3,0.8-0.8,0.8c-0.4,0-0.8-0.3-0.8-0.8C50.4,322.9,50.8,322.6,51.2,322.6z
			 M60.2,324h-7v-1.3h7V324z"/>
		<path d="M55.1,320.6c-0.7,0-1.3,0-1.9,0.1v-1.1l1.2-0.1v0c-0.7-0.3-1.3-1.2-1.3-2.3c0-1,0.6-2.5,3-2.5h4.2v1.3h-4
			c-1.1,0-2.1,0.4-2.1,1.6c0,0.8,0.6,1.5,1.3,1.7c0.2,0.1,0.4,0.1,0.6,0.1h4.2v1.3H55.1z"/>
		<path d="M56.9,311.8c1.7,0,2.4-1.1,2.4-2.4c0-0.9-0.2-1.5-0.4-1.9l0.9-0.2c0.2,0.4,0.4,1.2,0.4,2.3c0,2.2-1.4,3.5-3.6,3.5
			c-2.1,0-3.8-1.2-3.8-3.3c0-2.3,2-2.9,3.3-2.9c0.3,0,0.4,0,0.6,0V311.8z M56,308.1c-0.8,0-2.1,0.3-2.1,1.8c0,1.3,1.2,1.9,2.1,2
			V308.1z"/>
		<path d="M58.9,305.5c0.2-0.4,0.5-1.1,0.5-1.7c0-0.9-0.4-1.3-1-1.3c-0.6,0-0.9,0.4-1.3,1.3c-0.5,1.3-1.1,1.9-2,1.9
			c-1.1,0-2.1-0.9-2.1-2.4c0-0.7,0.2-1.3,0.4-1.7l0.9,0.3c-0.2,0.3-0.4,0.8-0.4,1.4c0,0.8,0.4,1.2,1,1.2c0.6,0,0.8-0.4,1.2-1.3
			c0.4-1.2,1.1-1.8,2.1-1.8c1.2,0,2.1,1,2.1,2.6c0,0.8-0.2,1.5-0.5,2L58.9,305.5z"/>
		<path d="M58.9,299.7c0.2-0.4,0.5-1.1,0.5-1.7c0-0.9-0.4-1.3-1-1.3c-0.6,0-0.9,0.4-1.3,1.3c-0.5,1.3-1.1,1.9-2,1.9
			c-1.1,0-2.1-0.9-2.1-2.4c0-0.7,0.2-1.3,0.4-1.7l0.9,0.3c-0.2,0.3-0.4,0.8-0.4,1.4c0,0.8,0.4,1.2,1,1.2c0.6,0,0.8-0.4,1.2-1.3
			c0.4-1.2,1.1-1.8,2.1-1.8c1.2,0,2.1,1,2.1,2.6c0,0.8-0.2,1.5-0.5,2L58.9,299.7z"/>
		<path d="M61.7,282.6c-0.3,1.3-0.7,2.6-1.1,3.7c-0.1,0.2-0.1,0.4-0.1,0.6c-0.1,2.3-1.8,4.3-5,4.3c-3.1,0-5.1-1.9-5.1-4.5
			c0-2.7,2.1-4.4,4.9-4.4c2.5,0,4.1,1.2,4.7,2.8H60c0.2-1,0.5-2,0.6-2.9L61.7,282.6z M55.3,283.7c-2,0-4,1-4,3.1
			c0,2.1,2,3.2,4.1,3.2c2.1,0,4-1.1,4-3.1C59.4,284.8,57.5,283.7,55.3,283.7z"/>
		<path d="M58.3,274.8c0.7,0,1.4,0,1.9-0.1v1.1l-1.1,0.1v0c0.6,0.3,1.3,1.1,1.3,2.3c0,1.1-0.6,2.4-3.1,2.4h-4.1v-1.3h3.9
			c1.3,0,2.2-0.4,2.2-1.6c0-0.9-0.6-1.4-1.2-1.7c-0.2-0.1-0.4-0.1-0.7-0.1h-4.3v-1.3H58.3z"/>
		<path d="M58.5,267.8c0.6,0,1.2,0,1.7-0.1v1.1l-0.9,0.1v0c0.6,0.4,1,1.1,1,2.1c0,1.4-1,2.1-2,2.1c-1.7,0-2.6-1.5-2.6-4.2h-0.1
			c-0.6,0-1.6,0.2-1.6,1.6c0,0.7,0.2,1.3,0.5,1.8l-0.9,0.3c-0.4-0.6-0.6-1.4-0.6-2.3c0-2.1,1.5-2.7,2.9-2.7H58.5z M56.6,269
			c0,1.4,0.2,3,1.6,3c0.8,0,1.2-0.6,1.2-1.2c0-0.9-0.6-1.5-1.2-1.7c-0.1,0-0.3-0.1-0.4-0.1H56.6z"/>
		<path d="M49.9,265.7v-1.3h10.3v1.3H49.9z"/>
		<path d="M51.2,260.9c0.4,0,0.8,0.3,0.8,0.8c0,0.5-0.3,0.8-0.8,0.8c-0.4,0-0.8-0.3-0.8-0.8C50.4,261.2,50.8,260.9,51.2,260.9z
			 M60.2,262.3h-7V261h7V262.3z"/>
		<path d="M51.5,257.4h1.7v-1.8h1v1.8H58c0.9,0,1.4-0.2,1.4-1c0-0.3,0-0.6-0.1-0.7l1-0.1c0.1,0.2,0.2,0.6,0.2,1.1
			c0,0.6-0.2,1.1-0.5,1.4c-0.4,0.3-1,0.5-1.8,0.5h-3.8v1.1h-1v-1.1h-1.3L51.5,257.4z"/>
		<path d="M53.2,253.5l4.1-1.5c0.5-0.2,1-0.3,1.4-0.5v0c-0.4-0.1-1-0.3-1.5-0.4l-4.1-1.4v-1.3l5,1.9c2.4,0.9,3.6,1.5,4.4,2.4
			c0.5,0.6,0.8,1.2,0.8,1.6l-1.1,0.3c-0.1-0.3-0.3-0.7-0.6-1.1c-0.3-0.3-0.8-0.8-1.4-1.1c-0.1-0.1-0.2-0.1-0.3-0.1
			c-0.1,0-0.2,0-0.3,0.1l-6.5,2.6V253.5z"/>
	</g>
	<g>
		<path d="M364,503.3c0.6-0.1,1.4-0.2,2.4-0.2c1.2,0,2.2,0.3,2.7,0.8c0.5,0.5,0.9,1.2,0.9,2c0,0.9-0.3,1.6-0.8,2.1
			c-0.7,0.7-1.8,1.1-3,1.1c-0.4,0-0.7,0-1-0.1v3.9H364V503.3z M365.3,508c0.3,0.1,0.6,0.1,1,0.1c1.5,0,2.4-0.8,2.4-2.1
			c0-1.3-0.9-1.9-2.3-1.9c-0.6,0-1,0-1.2,0.1V508z"/>
		<path d="M372.1,509.7c0,1.7,1.1,2.4,2.4,2.4c0.9,0,1.5-0.2,1.9-0.4l0.2,0.9c-0.4,0.2-1.2,0.4-2.3,0.4c-2.2,0-3.5-1.4-3.5-3.6
			c0-2.1,1.2-3.8,3.3-3.8c2.3,0,2.9,2,2.9,3.3c0,0.3,0,0.4,0,0.6H372.1z M375.8,508.8c0-0.8-0.3-2.1-1.8-2.1c-1.3,0-1.9,1.2-2,2.1
			H375.8z"/>
		<path d="M378.6,508.2c0-0.8,0-1.5-0.1-2.2h1.1l0.1,1.4h0c0.3-0.9,1.1-1.5,2-1.5c0.1,0,0.2,0,0.3,0v1.2c-0.1,0-0.3,0-0.4,0
			c-0.9,0-1.5,0.7-1.7,1.6c0,0.2,0,0.4,0,0.6v3.7h-1.3V508.2z"/>
		<path d="M388.2,512.7c-0.3,0.2-1.1,0.4-2,0.4c-2.1,0-3.5-1.4-3.5-3.6c0-2.2,1.5-3.7,3.8-3.7c0.8,0,1.4,0.2,1.8,0.4l-0.3,1
			c-0.3-0.2-0.8-0.3-1.5-0.3c-1.6,0-2.5,1.2-2.5,2.7c0,1.6,1,2.6,2.4,2.6c0.7,0,1.2-0.2,1.6-0.3L388.2,512.7z"/>
		<path d="M390.3,509.7c0,1.7,1.1,2.4,2.4,2.4c0.9,0,1.5-0.2,1.9-0.4l0.2,0.9c-0.4,0.2-1.2,0.4-2.3,0.4c-2.2,0-3.5-1.4-3.5-3.6
			c0-2.1,1.2-3.8,3.3-3.8c2.3,0,2.9,2,2.9,3.3c0,0.3,0,0.4,0,0.6H390.3z M394.1,508.8c0-0.8-0.3-2.1-1.8-2.1c-1.3,0-1.9,1.2-2,2.1
			H394.1z"/>
		<path d="M396.9,508.3c0-0.9,0-1.6-0.1-2.3h1.1l0.1,1.2h0c0.5-0.9,1.3-1.3,2.5-1.3c1.7,0,3,1.4,3,3.6c0,2.5-1.6,3.8-3.2,3.8
			c-0.9,0-1.7-0.4-2.2-1.1h0v3.8h-1.3V508.3z M398.1,510.1c0,0.2,0,0.4,0.1,0.5c0.2,0.9,1,1.5,1.9,1.5c1.3,0,2.1-1.1,2.1-2.7
			c0-1.4-0.7-2.6-2.1-2.6c-0.9,0-1.7,0.6-1.9,1.6c0,0.2-0.1,0.3-0.1,0.5V510.1z"/>
		<path d="M406.7,504.3v1.7h1.8v1h-1.8v3.8c0,0.9,0.2,1.4,1,1.4c0.3,0,0.6,0,0.7-0.1l0.1,1c-0.2,0.1-0.6,0.2-1.1,0.2
			c-0.6,0-1.1-0.2-1.4-0.5c-0.3-0.4-0.5-1-0.5-1.8v-3.8h-1.1v-1h1.1v-1.3L406.7,504.3z"/>
		<path d="M411.3,504c0,0.4-0.3,0.8-0.8,0.8c-0.5,0-0.8-0.3-0.8-0.8s0.3-0.8,0.8-0.8C411,503.2,411.3,503.6,411.3,504z M409.9,513
			v-7h1.3v7H409.9z"/>
		<path d="M419.7,509.4c0,2.6-1.8,3.7-3.5,3.7c-1.9,0-3.4-1.4-3.4-3.6c0-2.3,1.6-3.7,3.5-3.7C418.3,505.8,419.7,507.3,419.7,509.4z
			 M414.1,509.5c0,1.5,0.9,2.7,2.1,2.7c1.2,0,2.1-1.1,2.1-2.7c0-1.2-0.6-2.7-2.1-2.7C414.8,506.8,414.1,508.2,414.1,509.5z"/>
		<path d="M421.3,507.9c0-0.7,0-1.3-0.1-1.9h1.1l0.1,1.2h0c0.3-0.7,1.2-1.3,2.3-1.3c1,0,2.5,0.6,2.5,3v4.2H426v-4
			c0-1.1-0.4-2.1-1.6-2.1c-0.8,0-1.5,0.6-1.7,1.3c-0.1,0.2-0.1,0.4-0.1,0.6v4.2h-1.3V507.9z"/>
		<path d="M432.4,503.2h5.3v1.1h-4v3.2h3.7v1h-3.7v4.4h-1.3V503.2z"/>
		<path d="M443.7,511.3c0,0.6,0,1.2,0.1,1.7h-1.1l-0.1-0.9h0c-0.4,0.6-1.1,1-2.1,1c-1.4,0-2.1-1-2.1-2c0-1.7,1.5-2.6,4.2-2.6v-0.1
			c0-0.6-0.2-1.6-1.6-1.6c-0.7,0-1.3,0.2-1.8,0.5l-0.3-0.9c0.6-0.4,1.4-0.6,2.3-0.6c2.1,0,2.7,1.5,2.7,2.9V511.3z M442.5,509.4
			c-1.4,0-3,0.2-3,1.6c0,0.8,0.6,1.2,1.2,1.2c0.9,0,1.5-0.6,1.7-1.2c0-0.1,0.1-0.3,0.1-0.4V509.4z"/>
		<path d="M450.8,512.7c-0.3,0.2-1.1,0.4-2,0.4c-2.1,0-3.5-1.4-3.5-3.6c0-2.2,1.5-3.7,3.8-3.7c0.8,0,1.4,0.2,1.8,0.4l-0.3,1
			c-0.3-0.2-0.8-0.3-1.5-0.3c-1.6,0-2.5,1.2-2.5,2.7c0,1.6,1,2.6,2.4,2.6c0.7,0,1.2-0.2,1.6-0.3L450.8,512.7z"/>
		<path d="M454,504.3v1.7h1.8v1H454v3.8c0,0.9,0.2,1.4,1,1.4c0.3,0,0.6,0,0.7-0.1l0.1,1c-0.2,0.1-0.6,0.2-1.1,0.2
			c-0.6,0-1.1-0.2-1.4-0.5c-0.3-0.4-0.5-1-0.5-1.8v-3.8h-1.1v-1h1.1v-1.3L454,504.3z"/>
		<path d="M463.5,509.4c0,2.6-1.8,3.7-3.5,3.7c-1.9,0-3.4-1.4-3.4-3.6c0-2.3,1.6-3.7,3.5-3.7C462.2,505.8,463.5,507.3,463.5,509.4z
			 M458,509.5c0,1.5,0.9,2.7,2.1,2.7c1.2,0,2.1-1.1,2.1-2.7c0-1.2-0.6-2.7-2.1-2.7C458.6,506.8,458,508.2,458,509.5z"/>
		<path d="M465.2,508.2c0-0.8,0-1.5-0.1-2.2h1.1l0.1,1.4h0c0.3-0.9,1.1-1.5,2-1.5c0.1,0,0.2,0,0.3,0v1.2c-0.1,0-0.3,0-0.4,0
			c-0.9,0-1.5,0.7-1.7,1.6c0,0.2,0,0.4,0,0.6v3.7h-1.3V508.2z"/>
		<path d="M475.7,502.9c-1.1,1.4-1.8,3.3-1.8,5.9c0,2.6,0.8,4.4,1.8,5.9h-1c-0.9-1.2-1.9-3.1-1.9-5.9c0-2.8,1-4.7,1.9-5.9H475.7z"/>
		<path d="M477.1,503.3c0.6-0.1,1.4-0.2,2.4-0.2c1.2,0,2.2,0.3,2.7,0.8c0.5,0.5,0.9,1.2,0.9,2c0,0.9-0.3,1.6-0.8,2.1
			c-0.7,0.7-1.8,1.1-3,1.1c-0.4,0-0.7,0-1-0.1v3.9h-1.3V503.3z M478.4,508c0.3,0.1,0.6,0.1,1,0.1c1.5,0,2.5-0.8,2.5-2.1
			c0-1.3-0.9-1.9-2.3-1.9c-0.6,0-1,0-1.2,0.1V508z"/>
		<path d="M484.8,503.2h5.3v1.1h-4v3.2h3.7v1h-3.7v4.4h-1.3V503.2z"/>
		<path d="M491.1,514.7c1-1.4,1.8-3.3,1.8-5.9s-0.8-4.5-1.8-5.9h1c0.9,1.2,1.9,3.1,1.9,5.9c0,2.8-1,4.7-1.9,5.9H491.1z"/>
	</g>
	<g>
		<path d="M78.8,141.9h1.9v-6.7l-2.1,0.4v-1.1l2.1-0.4h1.2v7.8h1.9v1h-5V141.9z"/>
		<path d="M86.2,141.4h1.2v1.5h-1.2V141.4z"/>
		<path d="M92.5,134c1,0,1.7,0.4,2.2,1.2s0.8,1.9,0.8,3.4c0,1.5-0.3,2.6-0.8,3.4s-1.3,1.2-2.2,1.2s-1.7-0.4-2.2-1.2
			s-0.8-1.9-0.8-3.4c0-1.5,0.3-2.6,0.8-3.4S91.6,134,92.5,134z M92.5,134.9c-0.6,0-1.1,0.3-1.4,0.9s-0.5,1.5-0.5,2.7
			c0,1.2,0.2,2.1,0.5,2.7s0.8,0.9,1.4,0.9c0.6,0,1.1-0.3,1.4-0.9s0.5-1.5,0.5-2.7c0-1.2-0.2-2.1-0.5-2.7S93.2,134.9,92.5,134.9z"/>
		<path d="M100.2,134c1,0,1.7,0.4,2.2,1.2s0.8,1.9,0.8,3.4c0,1.5-0.3,2.6-0.8,3.4s-1.3,1.2-2.2,1.2s-1.7-0.4-2.2-1.2
			s-0.8-1.9-0.8-3.4c0-1.5,0.3-2.6,0.8-3.4S99.2,134,100.2,134z M100.2,134.9c-0.6,0-1.1,0.3-1.4,0.9s-0.5,1.5-0.5,2.7
			c0,1.2,0.2,2.1,0.5,2.7s0.8,0.9,1.4,0.9c0.6,0,1.1-0.3,1.4-0.9s0.5-1.5,0.5-2.7c0-1.2-0.2-2.1-0.5-2.7S100.8,134.9,100.2,134.9z"
			/>
	</g>
	<g>
		<g>
			<path d="M81.1,179.9c1,0,1.7,0.4,2.2,1.2s0.8,1.9,0.8,3.4c0,1.5-0.3,2.6-0.8,3.4s-1.3,1.2-2.2,1.2s-1.7-0.4-2.2-1.2
				s-0.8-1.9-0.8-3.4c0-1.5,0.3-2.6,0.8-3.4S80.1,179.9,81.1,179.9z M81.1,180.8c-0.6,0-1.1,0.3-1.4,0.9s-0.5,1.5-0.5,2.7
				c0,1.2,0.2,2.1,0.5,2.7s0.8,0.9,1.4,0.9c0.6,0,1.1-0.3,1.4-0.9s0.5-1.5,0.5-2.7c0-1.2-0.2-2.1-0.5-2.7S81.7,180.8,81.1,180.8z"/>
			<path d="M86.2,187.3h1.2v1.5h-1.2V187.3z"/>
			<path d="M89.7,180h5.6v0.5l-3.2,8.2h-1.2l3-7.8h-4.2V180z"/>
			<path d="M97.7,180h4.6v1h-3.6v2.1c0.2-0.1,0.3-0.1,0.5-0.1s0.3,0,0.5,0c1,0,1.8,0.3,2.3,0.8s0.9,1.3,0.9,2.2
				c0,0.9-0.3,1.7-0.9,2.2s-1.4,0.8-2.5,0.8c-0.4,0-0.7,0-1.1-0.1s-0.8-0.2-1.2-0.3v-1.2c0.4,0.2,0.7,0.3,1.1,0.4s0.8,0.1,1.2,0.1
				c0.7,0,1.2-0.2,1.6-0.5s0.6-0.8,0.6-1.4s-0.2-1.1-0.6-1.4s-0.9-0.5-1.6-0.5c-0.3,0-0.6,0-0.9,0.1s-0.6,0.2-1,0.3V180z"/>
		</g>
	</g>
	<g>
		<g>
			<path d="M81.1,225.8c1,0,1.7,0.4,2.2,1.2s0.8,1.9,0.8,3.4c0,1.5-0.3,2.6-0.8,3.4s-1.3,1.2-2.2,1.2s-1.7-0.4-2.2-1.2
				s-0.8-1.9-0.8-3.4c0-1.5,0.3-2.6,0.8-3.4S80.1,225.8,81.1,225.8z M81.1,226.7c-0.6,0-1.1,0.3-1.4,0.9s-0.5,1.5-0.5,2.7
				c0,1.2,0.2,2.1,0.5,2.7s0.8,0.9,1.4,0.9c0.6,0,1.1-0.3,1.4-0.9s0.5-1.5,0.5-2.7c0-1.2-0.2-2.1-0.5-2.7S81.7,226.7,81.1,226.7z"/>
			<path d="M86.2,233.2h1.2v1.5h-1.2V233.2z"/>
			<path d="M90,225.9h4.6v1h-3.6v2.1c0.2-0.1,0.3-0.1,0.5-0.1s0.3,0,0.5,0c1,0,1.8,0.3,2.3,0.8s0.9,1.3,0.9,2.2
				c0,0.9-0.3,1.7-0.9,2.2s-1.4,0.8-2.5,0.8c-0.4,0-0.7,0-1.1-0.1s-0.8-0.2-1.2-0.3v-1.2c0.4,0.2,0.7,0.3,1.1,0.4s0.8,0.1,1.2,0.1
				c0.7,0,1.2-0.2,1.6-0.5s0.6-0.8,0.6-1.4s-0.2-1.1-0.6-1.4s-0.9-0.5-1.6-0.5c-0.3,0-0.6,0-0.9,0.1s-0.6,0.2-1,0.3V225.9z"/>
			<path d="M100.2,225.8c1,0,1.7,0.4,2.2,1.2s0.8,1.9,0.8,3.4c0,1.5-0.3,2.6-0.8,3.4s-1.3,1.2-2.2,1.2s-1.7-0.4-2.2-1.2
				s-0.8-1.9-0.8-3.4c0-1.5,0.3-2.6,0.8-3.4S99.2,225.8,100.2,225.8z M100.2,226.7c-0.6,0-1.1,0.3-1.4,0.9s-0.5,1.5-0.5,2.7
				c0,1.2,0.2,2.1,0.5,2.7s0.8,0.9,1.4,0.9c0.6,0,1.1-0.3,1.4-0.9s0.5-1.5,0.5-2.7c0-1.2-0.2-2.1-0.5-2.7S100.8,226.7,100.2,226.7z"
				/>
		</g>
	</g>
	<g>
		<g>
			<path d="M81.1,271.3c1,0,1.7,0.4,2.2,1.2s0.8,1.9,0.8,3.4c0,1.5-0.3,2.6-0.8,3.4s-1.3,1.2-2.2,1.2s-1.7-0.4-2.2-1.2
				s-0.8-1.9-0.8-3.4c0-1.5,0.3-2.6,0.8-3.4S80.1,271.3,81.1,271.3z M81.1,272.3c-0.6,0-1.1,0.3-1.4,0.9s-0.5,1.5-0.5,2.7
				c0,1.2,0.2,2.1,0.5,2.7s0.8,0.9,1.4,0.9c0.6,0,1.1-0.3,1.4-0.9s0.5-1.5,0.5-2.7c0-1.2-0.2-2.1-0.5-2.7S81.7,272.3,81.1,272.3z"/>
			<path d="M86.2,278.7h1.2v1.5h-1.2V278.7z"/>
			<path d="M91,279.2h4.1v1h-5.6v-1c0.4-0.5,1.1-1.1,1.8-1.9s1.3-1.3,1.5-1.5c0.4-0.4,0.6-0.8,0.8-1.1s0.2-0.6,0.2-0.9
				c0-0.5-0.2-0.8-0.5-1.1s-0.8-0.4-1.3-0.4c-0.4,0-0.8,0.1-1.2,0.2s-0.9,0.3-1.3,0.6v-1.2c0.5-0.2,0.9-0.3,1.3-0.4s0.8-0.1,1.1-0.1
				c0.9,0,1.6,0.2,2.2,0.7s0.8,1.1,0.8,1.8c0,0.4-0.1,0.7-0.2,1s-0.4,0.7-0.7,1.1c-0.1,0.1-0.4,0.4-0.9,1S92,278.3,91,279.2z"/>
			<path d="M97.7,271.5h4.6v1h-3.6v2.1c0.2-0.1,0.3-0.1,0.5-0.1s0.3,0,0.5,0c1,0,1.8,0.3,2.3,0.8s0.9,1.3,0.9,2.2
				c0,0.9-0.3,1.7-0.9,2.2s-1.4,0.8-2.5,0.8c-0.4,0-0.7,0-1.1-0.1s-0.8-0.2-1.2-0.3v-1.2c0.4,0.2,0.7,0.3,1.1,0.4s0.8,0.1,1.2,0.1
				c0.7,0,1.2-0.2,1.6-0.5s0.6-0.8,0.6-1.4s-0.2-1.1-0.6-1.4s-0.9-0.5-1.6-0.5c-0.3,0-0.6,0-0.9,0.1s-0.6,0.2-1,0.3V271.5z"/>
		</g>
	</g>
	<g>
		<g>
			<path d="M81.1,317.1c1,0,1.7,0.4,2.2,1.2s0.8,1.9,0.8,3.4c0,1.5-0.3,2.6-0.8,3.4s-1.3,1.2-2.2,1.2s-1.7-0.4-2.2-1.2
				s-0.8-1.9-0.8-3.4c0-1.5,0.3-2.6,0.8-3.4S80.1,317.1,81.1,317.1z M81.1,318.1c-0.6,0-1.1,0.3-1.4,0.9s-0.5,1.5-0.5,2.7
				c0,1.2,0.2,2.1,0.5,2.7s0.8,0.9,1.4,0.9c0.6,0,1.1-0.3,1.4-0.9s0.5-1.5,0.5-2.7c0-1.2-0.2-2.1-0.5-2.7S81.7,318.1,81.1,318.1z"/>
			<path d="M86.2,324.5h1.2v1.5h-1.2V324.5z"/>
			<path d="M92.5,317.1c1,0,1.7,0.4,2.2,1.2s0.8,1.9,0.8,3.4c0,1.5-0.3,2.6-0.8,3.4s-1.3,1.2-2.2,1.2s-1.7-0.4-2.2-1.2
				s-0.8-1.9-0.8-3.4c0-1.5,0.3-2.6,0.8-3.4S91.6,317.1,92.5,317.1z M92.5,318.1c-0.6,0-1.1,0.3-1.4,0.9s-0.5,1.5-0.5,2.7
				c0,1.2,0.2,2.1,0.5,2.7s0.8,0.9,1.4,0.9c0.6,0,1.1-0.3,1.4-0.9s0.5-1.5,0.5-2.7c0-1.2-0.2-2.1-0.5-2.7S93.2,318.1,92.5,318.1z"/>
			<path d="M100.2,317.1c1,0,1.7,0.4,2.2,1.2s0.8,1.9,0.8,3.4c0,1.5-0.3,2.6-0.8,3.4s-1.3,1.2-2.2,1.2s-1.7-0.4-2.2-1.2
				s-0.8-1.9-0.8-3.4c0-1.5,0.3-2.6,0.8-3.4S99.2,317.1,100.2,317.1z M100.2,318.1c-0.6,0-1.1,0.3-1.4,0.9s-0.5,1.5-0.5,2.7
				c0,1.2,0.2,2.1,0.5,2.7s0.8,0.9,1.4,0.9c0.6,0,1.1-0.3,1.4-0.9s0.5-1.5,0.5-2.7c0-1.2-0.2-2.1-0.5-2.7S100.8,318.1,100.2,318.1z"
				/>
		</g>
	</g>
	<g>
		<g>
			<path d="M68.8,367.7h4.8v0.8h-4.8V367.7z"/>
			<path d="M78,362.5c1,0,1.7,0.4,2.2,1.2s0.8,1.9,0.8,3.4c0,1.5-0.3,2.6-0.8,3.4s-1.3,1.2-2.2,1.2s-1.7-0.4-2.2-1.2
				s-0.8-1.9-0.8-3.4c0-1.5,0.3-2.6,0.8-3.4S77,362.5,78,362.5z M78,363.5c-0.6,0-1.1,0.3-1.4,0.9s-0.5,1.5-0.5,2.7
				c0,1.2,0.2,2.1,0.5,2.7s0.8,0.9,1.4,0.9c0.6,0,1.1-0.3,1.4-0.9s0.5-1.5,0.5-2.7c0-1.2-0.2-2.1-0.5-2.7S78.6,363.5,78,363.5z"/>
			<path d="M83.1,369.9h1.2v1.5h-1.2V369.9z"/>
			<path d="M88,370.4h4.1v1h-5.6v-1c0.4-0.5,1.1-1.1,1.8-1.9s1.3-1.3,1.5-1.5c0.4-0.4,0.6-0.8,0.8-1.1s0.2-0.6,0.2-0.9
				c0-0.5-0.2-0.8-0.5-1.1s-0.8-0.4-1.3-0.4c-0.4,0-0.8,0.1-1.2,0.2s-0.9,0.3-1.3,0.6v-1.2c0.5-0.2,0.9-0.3,1.3-0.4s0.8-0.1,1.1-0.1
				c0.9,0,1.6,0.2,2.2,0.7s0.8,1.1,0.8,1.8c0,0.4-0.1,0.7-0.2,1s-0.4,0.7-0.7,1.1c-0.1,0.1-0.4,0.4-0.9,1S88.9,369.5,88,370.4z"/>
			<path d="M94.6,362.7h4.6v1h-3.6v2.1c0.2-0.1,0.3-0.1,0.5-0.1s0.3,0,0.5,0c1,0,1.8,0.3,2.3,0.8s0.9,1.3,0.9,2.2
				c0,0.9-0.3,1.7-0.9,2.2s-1.4,0.8-2.5,0.8c-0.4,0-0.7,0-1.1-0.1s-0.8-0.2-1.2-0.3V370c0.4,0.2,0.7,0.3,1.1,0.4s0.8,0.1,1.2,0.1
				c0.7,0,1.2-0.2,1.6-0.5s0.6-0.8,0.6-1.4s-0.2-1.1-0.6-1.4s-0.9-0.5-1.6-0.5c-0.3,0-0.6,0-0.9,0.1s-0.6,0.2-1,0.3V362.7z"/>
		</g>
	</g>
	<g>
		<g>
			<path d="M68.8,413.6h4.8v0.8h-4.8V413.6z"/>
			<path d="M78,408.4c1,0,1.7,0.4,2.2,1.2s0.8,1.9,0.8,3.4c0,1.5-0.3,2.6-0.8,3.4s-1.3,1.2-2.2,1.2s-1.7-0.4-2.2-1.2
				s-0.8-1.9-0.8-3.4c0-1.5,0.3-2.6,0.8-3.4S77,408.4,78,408.4z M78,409.3c-0.6,0-1.1,0.3-1.4,0.9s-0.5,1.5-0.5,2.7
				c0,1.2,0.2,2.1,0.5,2.7s0.8,0.9,1.4,0.9c0.6,0,1.1-0.3,1.4-0.9s0.5-1.5,0.5-2.7c0-1.2-0.2-2.1-0.5-2.7S78.6,409.3,78,409.3z"/>
			<path d="M83.1,415.8h1.2v1.5h-1.2V415.8z"/>
			<path d="M87,408.6h4.6v1H88v2.1c0.2-0.1,0.3-0.1,0.5-0.1s0.3,0,0.5,0c1,0,1.8,0.3,2.3,0.8s0.9,1.3,0.9,2.2c0,0.9-0.3,1.7-0.9,2.2
				s-1.4,0.8-2.5,0.8c-0.4,0-0.7,0-1.1-0.1s-0.8-0.2-1.2-0.3v-1.2c0.4,0.2,0.7,0.3,1.1,0.4s0.8,0.1,1.2,0.1c0.7,0,1.2-0.2,1.6-0.5
				s0.6-0.8,0.6-1.4s-0.2-1.1-0.6-1.4s-0.9-0.5-1.6-0.5c-0.3,0-0.6,0-0.9,0.1s-0.6,0.2-1,0.3V408.6z"/>
			<path d="M97.1,408.4c1,0,1.7,0.4,2.2,1.2s0.8,1.9,0.8,3.4c0,1.5-0.3,2.6-0.8,3.4s-1.3,1.2-2.2,1.2s-1.7-0.4-2.2-1.2
				s-0.8-1.9-0.8-3.4c0-1.5,0.3-2.6,0.8-3.4S96.1,408.4,97.1,408.4z M97.1,409.3c-0.6,0-1.1,0.3-1.4,0.9s-0.5,1.5-0.5,2.7
				c0,1.2,0.2,2.1,0.5,2.7s0.8,0.9,1.4,0.9c0.6,0,1.1-0.3,1.4-0.9s0.5-1.5,0.5-2.7c0-1.2-0.2-2.1-0.5-2.7S97.7,409.3,97.1,409.3z"/>
		</g>
	</g>
	<g>
		<g>
			<path d="M130.9,488.4c1,0,1.7,0.4,2.2,1.2s0.8,1.9,0.8,3.4c0,1.5-0.3,2.6-0.8,3.4s-1.3,1.2-2.2,1.2s-1.7-0.4-2.2-1.2
				s-0.8-1.9-0.8-3.4c0-1.5,0.3-2.6,0.8-3.4S129.9,488.4,130.9,488.4z M130.9,489.3c-0.6,0-1.1,0.3-1.4,0.9s-0.5,1.5-0.5,2.7
				c0,1.2,0.2,2.1,0.5,2.7s0.8,0.9,1.4,0.9c0.6,0,1.1-0.3,1.4-0.9s0.5-1.5,0.5-2.7c0-1.2-0.2-2.1-0.5-2.7S131.5,489.3,130.9,489.3z"
				/>
			<path d="M136,495.8h1.2v1.5H136V495.8z"/>
			<path d="M142.3,488.4c1,0,1.7,0.4,2.2,1.2s0.8,1.9,0.8,3.4c0,1.5-0.3,2.6-0.8,3.4s-1.3,1.2-2.2,1.2s-1.7-0.4-2.2-1.2
				s-0.8-1.9-0.8-3.4c0-1.5,0.3-2.6,0.8-3.4S141.3,488.4,142.3,488.4z M142.3,489.3c-0.6,0-1.1,0.3-1.4,0.9s-0.5,1.5-0.5,2.7
				c0,1.2,0.2,2.1,0.5,2.7s0.8,0.9,1.4,0.9c0.6,0,1.1-0.3,1.4-0.9s0.5-1.5,0.5-2.7c0-1.2-0.2-2.1-0.5-2.7S142.9,489.3,142.3,489.3z"
				/>
		</g>
	</g>
	<g>
		<g>
			<path d="M247.7,488.4c1,0,1.7,0.4,2.2,1.2s0.8,1.9,0.8,3.4c0,1.5-0.3,2.6-0.8,3.4s-1.3,1.2-2.2,1.2s-1.7-0.4-2.2-1.2
				s-0.8-1.9-0.8-3.4c0-1.5,0.3-2.6,0.8-3.4S246.8,488.4,247.7,488.4z M247.7,489.3c-0.6,0-1.1,0.3-1.4,0.9s-0.5,1.5-0.5,2.7
				c0,1.2,0.2,2.1,0.5,2.7s0.8,0.9,1.4,0.9c0.6,0,1.1-0.3,1.4-0.9s0.5-1.5,0.5-2.7c0-1.2-0.2-2.1-0.5-2.7S248.3,489.3,247.7,489.3z"
				/>
			<path d="M252.8,495.8h1.2v1.5h-1.2V495.8z"/>
			<path d="M257.7,496.3h4.1v1h-5.6v-1c0.4-0.5,1.1-1.1,1.8-1.9s1.3-1.3,1.5-1.5c0.4-0.4,0.6-0.8,0.8-1.1s0.2-0.6,0.2-0.9
				c0-0.5-0.2-0.8-0.5-1.1s-0.8-0.4-1.3-0.4c-0.4,0-0.8,0.1-1.2,0.2s-0.9,0.3-1.3,0.6V489c0.5-0.2,0.9-0.3,1.3-0.4s0.8-0.1,1.1-0.1
				c0.9,0,1.6,0.2,2.2,0.7s0.8,1.1,0.8,1.8c0,0.4-0.1,0.7-0.2,1s-0.4,0.7-0.7,1.1c-0.1,0.1-0.4,0.4-0.9,1S258.6,495.3,257.7,496.3z"
				/>
		</g>
	</g>
	<g>
		<g>
			<path d="M364.6,488.4c1,0,1.7,0.4,2.2,1.2s0.8,1.9,0.8,3.4c0,1.5-0.3,2.6-0.8,3.4s-1.3,1.2-2.2,1.2s-1.7-0.4-2.2-1.2
				s-0.8-1.9-0.8-3.4c0-1.5,0.3-2.6,0.8-3.4S363.6,488.4,364.6,488.4z M364.6,489.3c-0.6,0-1.1,0.3-1.4,0.9s-0.5,1.5-0.5,2.7
				c0,1.2,0.2,2.1,0.5,2.7s0.8,0.9,1.4,0.9c0.6,0,1.1-0.3,1.4-0.9s0.5-1.5,0.5-2.7c0-1.2-0.2-2.1-0.5-2.7S365.2,489.3,364.6,489.3z"
				/>
			<path d="M369.7,495.8h1.2v1.5h-1.2V495.8z"/>
			<path d="M376.5,488.5h1.5v5.7h1.2v1H378v2.1h-1.2v-2.1h-3.9v-1.1L376.5,488.5z M376.8,489.6l-3,4.7h3V489.6z"/>
		</g>
	</g>
	<g>
		<g>
			<path d="M481.5,488.4c1,0,1.7,0.4,2.2,1.2s0.8,1.9,0.8,3.4c0,1.5-0.3,2.6-0.8,3.4s-1.3,1.2-2.2,1.2s-1.7-0.4-2.2-1.2
				s-0.8-1.9-0.8-3.4c0-1.5,0.3-2.6,0.8-3.4S480.5,488.4,481.5,488.4z M481.5,489.3c-0.6,0-1.1,0.3-1.4,0.9s-0.5,1.5-0.5,2.7
				c0,1.2,0.2,2.1,0.5,2.7s0.8,0.9,1.4,0.9c0.6,0,1.1-0.3,1.4-0.9s0.5-1.5,0.5-2.7c0-1.2-0.2-2.1-0.5-2.7S482.1,489.3,481.5,489.3z"
				/>
			<path d="M486.6,495.8h1.2v1.5h-1.2V495.8z"/>
			<path d="M495.4,488.7v1.1c-0.3-0.1-0.6-0.2-0.9-0.3s-0.6-0.1-0.9-0.1c-0.8,0-1.4,0.3-1.8,0.8s-0.6,1.3-0.7,2.4
				c0.2-0.3,0.5-0.6,0.9-0.8s0.7-0.3,1.1-0.3c0.9,0,1.6,0.3,2.1,0.8s0.8,1.3,0.8,2.2c0,0.9-0.3,1.6-0.8,2.2s-1.2,0.8-2.1,0.8
				c-1,0-1.8-0.4-2.3-1.2s-0.8-1.9-0.8-3.4c0-1.4,0.3-2.5,1-3.3s1.5-1.2,2.6-1.2c0.3,0,0.6,0,0.9,0.1S495.1,488.6,495.4,488.7z
				 M493.1,492.4c-0.5,0-1,0.2-1.3,0.5s-0.5,0.9-0.5,1.5c0,0.6,0.2,1.1,0.5,1.5s0.7,0.5,1.3,0.5s1-0.2,1.3-0.5s0.5-0.9,0.5-1.5
				c0-0.6-0.2-1.1-0.5-1.5S493.6,492.4,493.1,492.4z"/>
		</g>
	</g>
	<g>
		<g>
			<path d="M712.9,496.3h1.9v-6.7l-2.1,0.4V489l2.1-0.4h1.2v7.8h1.9v1h-5V496.3z"/>
			<path d="M720.3,495.8h1.2v1.5h-1.2V495.8z"/>
			<path d="M726.7,488.4c1,0,1.7,0.4,2.2,1.2s0.8,1.9,0.8,3.4c0,1.5-0.3,2.6-0.8,3.4s-1.3,1.2-2.2,1.2s-1.7-0.4-2.2-1.2
				s-0.8-1.9-0.8-3.4c0-1.5,0.3-2.6,0.8-3.4S725.7,488.4,726.7,488.4z M726.7,489.3c-0.6,0-1.1,0.3-1.4,0.9s-0.5,1.5-0.5,2.7
				c0,1.2,0.2,2.1,0.5,2.7s0.8,0.9,1.4,0.9c0.6,0,1.1-0.3,1.4-0.9s0.5-1.5,0.5-2.7c0-1.2-0.2-2.1-0.5-2.7S727.3,489.3,726.7,489.3z"
				/>
		</g>
	</g>
	<g>
		<g>
			<path d="M598.3,488.4c1,0,1.7,0.4,2.2,1.2s0.8,1.9,0.8,3.4c0,1.5-0.3,2.6-0.8,3.4s-1.3,1.2-2.2,1.2s-1.7-0.4-2.2-1.2
				s-0.8-1.9-0.8-3.4c0-1.5,0.3-2.6,0.8-3.4S597.4,488.4,598.3,488.4z M598.3,489.3c-0.6,0-1.1,0.3-1.4,0.9s-0.5,1.5-0.5,2.7
				c0,1.2,0.2,2.1,0.5,2.7s0.8,0.9,1.4,0.9c0.6,0,1.1-0.3,1.4-0.9s0.5-1.5,0.5-2.7c0-1.2-0.2-2.1-0.5-2.7S599,489.3,598.3,489.3z"/>
			<path d="M603.4,495.8h1.2v1.5h-1.2V495.8z"/>
			<path d="M608.6,492.6c-0.5-0.1-0.9-0.4-1.2-0.7s-0.4-0.8-0.4-1.3c0-0.7,0.2-1.3,0.7-1.7s1.2-0.6,2-0.6c0.9,0,1.6,0.2,2.1,0.6
				s0.7,1,0.7,1.7c0,0.5-0.1,0.9-0.4,1.3s-0.7,0.6-1.2,0.7c0.6,0.1,1,0.4,1.3,0.8s0.5,0.9,0.5,1.4c0,0.8-0.3,1.5-0.8,2
				s-1.3,0.7-2.2,0.7s-1.7-0.2-2.2-0.7s-0.8-1.1-0.8-2c0-0.6,0.2-1,0.5-1.4S608,492.8,608.6,492.6z M609.8,493.1
				c-0.6,0-1,0.2-1.3,0.5s-0.5,0.7-0.5,1.2s0.2,0.9,0.5,1.2s0.8,0.5,1.3,0.5s1-0.2,1.3-0.5s0.5-0.7,0.5-1.2c0-0.5-0.2-0.9-0.5-1.2
				S610.4,493.1,609.8,493.1z M608.2,490.8c0,0.5,0.1,0.8,0.4,1.1s0.7,0.4,1.2,0.4c0.5,0,0.9-0.1,1.2-0.4s0.4-0.6,0.4-1.1
				s-0.1-0.8-0.4-1.1s-0.7-0.4-1.2-0.4c-0.5,0-0.9,0.1-1.2,0.4S608.2,490.3,608.2,490.8z"/>
		</g>
	</g>
	<g>
		<g>
			<path d="M565.3,488.4c1,0,1.7,0.4,2.2,1.2s0.8,1.9,0.8,3.4c0,1.5-0.3,2.6-0.8,3.4s-1.3,1.2-2.2,1.2s-1.7-0.4-2.2-1.2
				s-0.8-1.9-0.8-3.4c0-1.5,0.3-2.6,0.8-3.4S564.3,488.4,565.3,488.4z M565.3,489.3c-0.6,0-1.1,0.3-1.4,0.9s-0.5,1.5-0.5,2.7
				c0,1.2,0.2,2.1,0.5,2.7s0.8,0.9,1.4,0.9c0.6,0,1.1-0.3,1.4-0.9s0.5-1.5,0.5-2.7c0-1.2-0.2-2.1-0.5-2.7S565.9,489.3,565.3,489.3z"
				/>
			<path d="M570.4,495.8h1.2v1.5h-1.2V495.8z"/>
			<path d="M573.9,488.5h5.6v0.5l-3.2,8.2h-1.2l3-7.8h-4.2V488.5z"/>
			<path d="M581.9,488.5h4.6v1H583v2.1c0.2-0.1,0.3-0.1,0.5-0.1s0.3,0,0.5,0c1,0,1.8,0.3,2.3,0.8s0.9,1.3,0.9,2.2
				c0,0.9-0.3,1.7-0.9,2.2s-1.4,0.8-2.5,0.8c-0.4,0-0.7,0-1.1-0.1s-0.8-0.2-1.2-0.3v-1.2c0.4,0.2,0.7,0.3,1.1,0.4s0.8,0.1,1.2,0.1
				c0.7,0,1.2-0.2,1.6-0.5s0.6-0.8,0.6-1.4s-0.2-1.1-0.6-1.4s-0.9-0.5-1.6-0.5c-0.3,0-0.6,0-0.9,0.1s-0.6,0.2-1,0.3V488.5z"/>
		</g>
	</g>
	<g>
		<path d="M147.5,249.7h3.8v0.7h-2.9v1.9h2.6v0.7h-2.6v3.1h-0.9V249.7z"/>
		<path d="M155.7,253.4v2.8h-0.8v-0.7c-0.2,0.3-0.4,0.5-0.7,0.7c-0.3,0.1-0.6,0.2-1,0.2c-0.5,0-0.9-0.1-1.2-0.4
			c-0.3-0.3-0.4-0.7-0.4-1.1c0-0.6,0.2-1,0.6-1.3c0.4-0.3,0.9-0.4,1.7-0.4h1.1v-0.1c0-0.4-0.1-0.7-0.4-0.9c-0.2-0.2-0.6-0.3-1-0.3
			c-0.3,0-0.6,0-0.8,0.1s-0.5,0.2-0.8,0.3v-0.7c0.3-0.1,0.6-0.2,0.9-0.3c0.3-0.1,0.5-0.1,0.8-0.1c0.7,0,1.2,0.2,1.6,0.6
			S155.7,252.7,155.7,253.4z M154.1,253.8c-0.7,0-1.1,0.1-1.4,0.2s-0.4,0.4-0.4,0.8c0,0.3,0.1,0.5,0.3,0.7c0.2,0.2,0.4,0.3,0.8,0.3
			c0.4,0,0.8-0.2,1.1-0.5c0.3-0.3,0.4-0.7,0.4-1.3v-0.2H154.1z"/>
		<path d="M157.3,249.4h0.8v6.8h-0.8V249.4z"/>
		<path d="M163,251.5v0.8c-0.2-0.1-0.5-0.2-0.7-0.3s-0.5-0.1-0.8-0.1c-0.4,0-0.7,0.1-0.9,0.2c-0.2,0.1-0.3,0.3-0.3,0.6
			c0,0.2,0.1,0.3,0.2,0.4s0.4,0.2,0.9,0.3l0.3,0.1c0.6,0.1,1,0.3,1.2,0.5c0.2,0.2,0.4,0.5,0.4,0.9c0,0.5-0.2,0.8-0.5,1.1
			c-0.4,0.3-0.9,0.4-1.5,0.4c-0.3,0-0.5,0-0.8-0.1c-0.3-0.1-0.6-0.1-0.9-0.2v-0.8c0.3,0.2,0.6,0.3,0.9,0.3c0.3,0.1,0.6,0.1,0.9,0.1
			c0.4,0,0.7-0.1,0.9-0.2c0.2-0.1,0.3-0.3,0.3-0.6c0-0.2-0.1-0.4-0.2-0.5c-0.1-0.1-0.5-0.2-1-0.3l-0.3-0.1c-0.5-0.1-0.9-0.3-1.1-0.5
			s-0.3-0.5-0.3-0.9c0-0.5,0.2-0.8,0.5-1.1s0.8-0.4,1.4-0.4c0.3,0,0.6,0,0.8,0.1S162.8,251.4,163,251.5z"/>
		<path d="M168.7,253.6v0.4H165c0,0.6,0.2,1,0.5,1.3c0.3,0.3,0.7,0.4,1.3,0.4c0.3,0,0.6,0,0.9-0.1s0.6-0.2,0.9-0.3v0.8
			c-0.3,0.1-0.6,0.2-0.9,0.3s-0.6,0.1-0.9,0.1c-0.8,0-1.4-0.2-1.9-0.7c-0.5-0.5-0.7-1.1-0.7-1.9c0-0.8,0.2-1.4,0.7-1.9
			c0.4-0.5,1-0.7,1.8-0.7c0.7,0,1.2,0.2,1.6,0.6C168.5,252.3,168.7,252.9,168.7,253.6z M167.9,253.4c0-0.4-0.1-0.8-0.4-1.1
			c-0.2-0.3-0.6-0.4-1-0.4c-0.5,0-0.8,0.1-1.1,0.4c-0.3,0.3-0.4,0.6-0.5,1.1L167.9,253.4z"/>
		<path d="M173,249.7h0.9v6.1c0,0.8-0.2,1.4-0.5,1.7s-0.8,0.5-1.4,0.5h-0.3v-0.7h0.3c0.4,0,0.7-0.1,0.8-0.3s0.2-0.6,0.2-1.2V249.7z"
			/>
		<path d="M177.5,251.2c0.7,0,1.3,0.2,1.7,0.7s0.6,1.1,0.6,1.9c0,0.8-0.2,1.4-0.6,1.9c-0.4,0.5-1,0.7-1.7,0.7
			c-0.7,0-1.3-0.2-1.7-0.7c-0.4-0.5-0.6-1.1-0.6-1.9c0-0.8,0.2-1.4,0.6-1.9C176.2,251.4,176.8,251.2,177.5,251.2z M177.5,251.9
			c-0.4,0-0.8,0.2-1,0.5c-0.3,0.3-0.4,0.8-0.4,1.4s0.1,1.1,0.4,1.4c0.3,0.3,0.6,0.5,1,0.5c0.4,0,0.8-0.2,1-0.5s0.4-0.8,0.4-1.4
			c0-0.6-0.1-1-0.4-1.4S177.9,251.9,177.5,251.9z"/>
		<path d="M183.1,256.7c-0.2,0.6-0.5,1-0.7,1.1s-0.5,0.3-0.9,0.3H181v-0.7h0.5c0.2,0,0.4-0.1,0.5-0.2s0.3-0.4,0.4-0.7l0.1-0.4
			l-2-4.8h0.9l1.5,3.8l1.5-3.8h0.9L183.1,256.7z"/>
		<path d="M145.8,260.2c-0.4,0.7-0.7,1.3-0.9,2s-0.3,1.3-0.3,2s0.1,1.3,0.3,2c0.2,0.7,0.5,1.3,0.9,2h-0.7c-0.4-0.7-0.8-1.4-1-2
			s-0.3-1.3-0.3-2c0-0.7,0.1-1.3,0.3-2s0.5-1.3,1-2H145.8z"/>
		<path d="M147.4,260.5h1.8c1.3,0,2.2,0.3,2.8,0.8s0.9,1.4,0.9,2.5c0,1.1-0.3,2-0.9,2.5s-1.5,0.8-2.8,0.8h-1.8V260.5z M148.3,261.2
			v5.1h1.1c0.9,0,1.6-0.2,2-0.6c0.4-0.4,0.6-1.1,0.6-1.9c0-0.9-0.2-1.5-0.6-1.9c-0.4-0.4-1.1-0.6-2-0.6H148.3z"/>
		<path d="M158.6,264.4v0.4h-3.7c0,0.6,0.2,1,0.5,1.3c0.3,0.3,0.7,0.4,1.3,0.4c0.3,0,0.6,0,0.9-0.1s0.6-0.2,0.9-0.3v0.8
			c-0.3,0.1-0.6,0.2-0.9,0.3s-0.6,0.1-0.9,0.1c-0.8,0-1.4-0.2-1.9-0.7c-0.5-0.5-0.7-1.1-0.7-1.9c0-0.8,0.2-1.4,0.7-1.9
			c0.4-0.5,1-0.7,1.8-0.7c0.7,0,1.2,0.2,1.6,0.6C158.4,263.1,158.6,263.7,158.6,264.4z M157.7,264.2c0-0.4-0.1-0.8-0.4-1.1
			c-0.2-0.3-0.6-0.4-1-0.4c-0.5,0-0.8,0.1-1.1,0.4c-0.3,0.3-0.4,0.6-0.5,1.1L157.7,264.2z"/>
		<path d="M159.9,260.2h0.8v6.8h-0.8V260.2z"/>
		<path d="M162.3,265.1v-3h0.8v2.9c0,0.5,0.1,0.8,0.3,1c0.2,0.2,0.5,0.3,0.8,0.3c0.4,0,0.8-0.1,1-0.4c0.3-0.3,0.4-0.7,0.4-1.1v-2.8
			h0.8v4.9h-0.8v-0.8c-0.2,0.3-0.4,0.5-0.7,0.7c-0.3,0.1-0.6,0.2-0.9,0.2c-0.6,0-1-0.2-1.3-0.5S162.3,265.8,162.3,265.1z"/>
		<path d="M171.2,262.3v0.8c-0.2-0.1-0.5-0.2-0.7-0.3s-0.5-0.1-0.8-0.1c-0.4,0-0.7,0.1-0.9,0.2c-0.2,0.1-0.3,0.3-0.3,0.6
			c0,0.2,0.1,0.3,0.2,0.4s0.4,0.2,0.9,0.3l0.3,0.1c0.6,0.1,1,0.3,1.2,0.5c0.2,0.2,0.4,0.5,0.4,0.9c0,0.5-0.2,0.8-0.5,1.1
			c-0.4,0.3-0.9,0.4-1.5,0.4c-0.3,0-0.5,0-0.8-0.1c-0.3-0.1-0.6-0.1-0.9-0.2V266c0.3,0.2,0.6,0.3,0.9,0.3c0.3,0.1,0.6,0.1,0.9,0.1
			c0.4,0,0.7-0.1,0.9-0.2c0.2-0.1,0.3-0.3,0.3-0.6c0-0.2-0.1-0.4-0.2-0.5c-0.1-0.1-0.5-0.2-1-0.3l-0.3-0.1c-0.5-0.1-0.9-0.3-1.1-0.5
			s-0.3-0.5-0.3-0.9c0-0.5,0.2-0.8,0.5-1.1s0.8-0.4,1.4-0.4c0.3,0,0.6,0,0.8,0.1S171,262.2,171.2,262.3z"/>
		<path d="M172.8,260.2h0.8v1h-0.8V260.2z M172.8,262.1h0.8v4.9h-0.8V262.1z"/>
		<path d="M177.2,262c0.7,0,1.3,0.2,1.7,0.7s0.6,1.1,0.6,1.9c0,0.8-0.2,1.4-0.6,1.9c-0.4,0.5-1,0.7-1.7,0.7c-0.7,0-1.3-0.2-1.7-0.7
			c-0.4-0.5-0.6-1.1-0.6-1.9c0-0.8,0.2-1.4,0.6-1.9C175.9,262.2,176.5,262,177.2,262z M177.2,262.7c-0.4,0-0.8,0.2-1,0.5
			c-0.3,0.3-0.4,0.8-0.4,1.4s0.1,1.1,0.4,1.4c0.3,0.3,0.6,0.5,1,0.5c0.4,0,0.8-0.2,1-0.5s0.4-0.8,0.4-1.4c0-0.6-0.1-1-0.4-1.4
			S177.6,262.7,177.2,262.7z"/>
		<path d="M184.9,264.1v3h-0.8v-2.9c0-0.5-0.1-0.8-0.3-1s-0.5-0.3-0.8-0.3c-0.4,0-0.8,0.1-1,0.4s-0.4,0.7-0.4,1.1v2.8h-0.8v-4.9h0.8
			v0.8c0.2-0.3,0.4-0.5,0.7-0.7s0.6-0.2,0.9-0.2c0.6,0,1,0.2,1.3,0.5C184.7,262.9,184.9,263.4,184.9,264.1z"/>
		<path d="M186.4,260.2h0.7c0.4,0.7,0.8,1.4,1,2s0.3,1.3,0.3,2c0,0.7-0.1,1.3-0.3,2s-0.5,1.3-1,2h-0.7c0.4-0.7,0.7-1.3,0.9-2
			c0.2-0.7,0.3-1.3,0.3-2s-0.1-1.3-0.3-2S186.7,260.9,186.4,260.2z"/>
	</g>
	<g>
		<path d="M413.5,424h1l2.5,6.6H416l-0.6-1.7h-3l-0.6,1.7H411L413.5,424z M414,424.9l-1.2,3.3h2.4L414,424.9z"/>
		<path d="M422,427.6v3h-0.8v-2.9c0-0.5-0.1-0.8-0.3-1c-0.2-0.2-0.5-0.3-0.8-0.3c-0.4,0-0.8,0.1-1,0.4c-0.3,0.3-0.4,0.7-0.4,1.1v2.8
			h-0.8v-4.9h0.8v0.8c0.2-0.3,0.4-0.5,0.7-0.7c0.3-0.1,0.6-0.2,0.9-0.2c0.6,0,1,0.2,1.3,0.5C421.8,426.4,422,427,422,427.6z"/>
		<path d="M427.7,425.7l-1.8,2.4l1.9,2.5h-1l-1.4-1.9l-1.4,1.9h-1l1.9-2.6l-1.7-2.3h1l1.3,1.8l1.3-1.8H427.7z"/>
		<path d="M428.9,423.8h0.8v1h-0.8V423.8z M428.9,425.7h0.8v4.9h-0.8V425.7z"/>
		<path d="M433.3,425.6c0.7,0,1.3,0.2,1.7,0.7s0.6,1.1,0.6,1.9c0,0.8-0.2,1.4-0.6,1.9c-0.4,0.5-1,0.7-1.7,0.7
			c-0.7,0-1.3-0.2-1.7-0.7c-0.4-0.5-0.6-1.1-0.6-1.9c0-0.8,0.2-1.4,0.6-1.9C432.1,425.8,432.6,425.6,433.3,425.6z M433.3,426.2
			c-0.4,0-0.8,0.2-1,0.5c-0.3,0.3-0.4,0.8-0.4,1.4s0.1,1.1,0.4,1.4c0.3,0.3,0.6,0.5,1,0.5c0.4,0,0.8-0.2,1-0.5s0.4-0.8,0.4-1.4
			c0-0.6-0.1-1-0.4-1.4C434.1,426.4,433.8,426.2,433.3,426.2z"/>
		<path d="M436.8,428.7v-3h0.8v2.9c0,0.5,0.1,0.8,0.3,1c0.2,0.2,0.5,0.3,0.8,0.3c0.4,0,0.8-0.1,1-0.4c0.3-0.3,0.4-0.7,0.4-1.1v-2.8
			h0.8v4.9h-0.8v-0.8c-0.2,0.3-0.4,0.5-0.7,0.7c-0.3,0.1-0.6,0.2-0.9,0.2c-0.6,0-1-0.2-1.3-0.5S436.8,429.3,436.8,428.7z"/>
		<path d="M445.8,425.8v0.8c-0.2-0.1-0.5-0.2-0.7-0.3s-0.5-0.1-0.8-0.1c-0.4,0-0.7,0.1-0.9,0.2c-0.2,0.1-0.3,0.3-0.3,0.6
			c0,0.2,0.1,0.3,0.2,0.4c0.1,0.1,0.4,0.2,0.9,0.3l0.3,0.1c0.6,0.1,1,0.3,1.2,0.5c0.2,0.2,0.4,0.5,0.4,0.9c0,0.5-0.2,0.8-0.5,1.1
			c-0.4,0.3-0.9,0.4-1.5,0.4c-0.3,0-0.5,0-0.8-0.1c-0.3-0.1-0.6-0.1-0.9-0.2v-0.8c0.3,0.2,0.6,0.3,0.9,0.3c0.3,0.1,0.6,0.1,0.9,0.1
			c0.4,0,0.7-0.1,0.9-0.2s0.3-0.3,0.3-0.6c0-0.2-0.1-0.4-0.2-0.5c-0.1-0.1-0.5-0.2-1-0.3l-0.3-0.1c-0.5-0.1-0.9-0.3-1.1-0.5
			c-0.2-0.2-0.3-0.5-0.3-0.9c0-0.5,0.2-0.8,0.5-1.1s0.8-0.4,1.4-0.4c0.3,0,0.6,0,0.8,0.1C445.3,425.7,445.5,425.7,445.8,425.8z"/>
		<path d="M407.1,434.8h1l2.5,6.6h-0.9l-0.6-1.7h-3l-0.6,1.7h-0.9L407.1,434.8z M407.6,435.7l-1.2,3.3h2.4L407.6,435.7z"/>
		<path d="M410.7,436.5h0.8l1,3.8l1-3.8h1l1,3.8l1-3.8h0.8l-1.3,4.9h-1l-1.1-4l-1.1,4h-1L410.7,436.5z"/>
		<path d="M422.4,438.6v2.8h-0.8v-0.7c-0.2,0.3-0.4,0.5-0.7,0.7c-0.3,0.1-0.6,0.2-1,0.2c-0.5,0-0.9-0.1-1.2-0.4
			c-0.3-0.3-0.4-0.7-0.4-1.1c0-0.6,0.2-1,0.6-1.3c0.4-0.3,0.9-0.4,1.7-0.4h1.1v-0.1c0-0.4-0.1-0.7-0.4-0.9c-0.2-0.2-0.6-0.3-1-0.3
			c-0.3,0-0.6,0-0.8,0.1c-0.3,0.1-0.5,0.2-0.8,0.3v-0.7c0.3-0.1,0.6-0.2,0.9-0.3s0.5-0.1,0.8-0.1c0.7,0,1.2,0.2,1.6,0.6
			S422.4,437.8,422.4,438.6z M420.8,438.9c-0.7,0-1.1,0.1-1.4,0.2c-0.3,0.1-0.4,0.4-0.4,0.8c0,0.3,0.1,0.5,0.3,0.7
			c0.2,0.2,0.4,0.3,0.8,0.3c0.4,0,0.8-0.2,1.1-0.5c0.3-0.3,0.4-0.7,0.4-1.3v-0.2H420.8z"/>
		<path d="M426.9,437.2c-0.1-0.1-0.2-0.1-0.3-0.1c-0.1,0-0.2,0-0.4,0c-0.5,0-0.8,0.1-1.1,0.4c-0.2,0.3-0.4,0.7-0.4,1.3v2.6H424v-4.9
			h0.8v0.8c0.2-0.3,0.4-0.5,0.7-0.7c0.3-0.1,0.6-0.2,1-0.2c0.1,0,0.1,0,0.2,0c0.1,0,0.1,0,0.2,0L426.9,437.2z"/>
		<path d="M431.7,438.7v0.4H428c0,0.6,0.2,1,0.5,1.3c0.3,0.3,0.7,0.4,1.3,0.4c0.3,0,0.6,0,0.9-0.1c0.3-0.1,0.6-0.2,0.9-0.3v0.8
			c-0.3,0.1-0.6,0.2-0.9,0.3s-0.6,0.1-0.9,0.1c-0.8,0-1.4-0.2-1.9-0.7c-0.5-0.5-0.7-1.1-0.7-1.9c0-0.8,0.2-1.4,0.7-1.9
			c0.4-0.5,1-0.7,1.8-0.7c0.7,0,1.2,0.2,1.6,0.6C431.6,437.4,431.7,438,431.7,438.7z M430.9,438.5c0-0.4-0.1-0.8-0.4-1.1
			c-0.2-0.3-0.6-0.4-1-0.4c-0.5,0-0.8,0.1-1.1,0.4c-0.3,0.3-0.4,0.6-0.5,1.1L430.9,438.5z"/>
		<path d="M437.2,438.4v3h-0.8v-2.9c0-0.5-0.1-0.8-0.3-1c-0.2-0.2-0.5-0.3-0.8-0.3c-0.4,0-0.8,0.1-1,0.4c-0.3,0.3-0.4,0.7-0.4,1.1
			v2.8H433v-4.9h0.8v0.8c0.2-0.3,0.4-0.5,0.7-0.7c0.3-0.1,0.6-0.2,0.9-0.2c0.6,0,1,0.2,1.3,0.5S437.2,437.8,437.2,438.4z"/>
		<path d="M443,438.7v0.4h-3.7c0,0.6,0.2,1,0.5,1.3c0.3,0.3,0.7,0.4,1.3,0.4c0.3,0,0.6,0,0.9-0.1c0.3-0.1,0.6-0.2,0.9-0.3v0.8
			c-0.3,0.1-0.6,0.2-0.9,0.3s-0.6,0.1-0.9,0.1c-0.8,0-1.4-0.2-1.9-0.7c-0.5-0.5-0.7-1.1-0.7-1.9c0-0.8,0.2-1.4,0.7-1.9
			c0.4-0.5,1-0.7,1.8-0.7c0.7,0,1.2,0.2,1.6,0.6C442.8,437.4,443,438,443,438.7z M442.2,438.5c0-0.4-0.1-0.8-0.4-1.1
			c-0.2-0.3-0.6-0.4-1-0.4c-0.5,0-0.8,0.1-1.1,0.4c-0.3,0.3-0.4,0.6-0.5,1.1L442.2,438.5z"/>
		<path d="M447.5,436.6v0.8c-0.2-0.1-0.5-0.2-0.7-0.3s-0.5-0.1-0.8-0.1c-0.4,0-0.7,0.1-0.9,0.2c-0.2,0.1-0.3,0.3-0.3,0.6
			c0,0.2,0.1,0.3,0.2,0.4c0.1,0.1,0.4,0.2,0.9,0.3l0.3,0.1c0.6,0.1,1,0.3,1.2,0.5c0.2,0.2,0.4,0.5,0.4,0.9c0,0.5-0.2,0.8-0.5,1.1
			c-0.4,0.3-0.9,0.4-1.5,0.4c-0.3,0-0.5,0-0.8-0.1c-0.3-0.1-0.6-0.1-0.9-0.2v-0.8c0.3,0.2,0.6,0.3,0.9,0.3s0.6,0.1,0.9,0.1
			c0.4,0,0.7-0.1,0.9-0.2c0.2-0.1,0.3-0.3,0.3-0.6c0-0.2-0.1-0.4-0.2-0.5c-0.1-0.1-0.5-0.2-1-0.3l-0.3-0.1c-0.5-0.1-0.9-0.3-1.1-0.5
			c-0.2-0.2-0.3-0.5-0.3-0.9c0-0.5,0.2-0.8,0.5-1.1s0.8-0.4,1.4-0.4c0.3,0,0.6,0,0.8,0.1C447,436.5,447.2,436.5,447.5,436.6z"/>
		<path d="M452.1,436.6v0.8c-0.2-0.1-0.5-0.2-0.7-0.3s-0.5-0.1-0.8-0.1c-0.4,0-0.7,0.1-0.9,0.2c-0.2,0.1-0.3,0.3-0.3,0.6
			c0,0.2,0.1,0.3,0.2,0.4c0.1,0.1,0.4,0.2,0.9,0.3l0.3,0.1c0.6,0.1,1,0.3,1.2,0.5c0.2,0.2,0.4,0.5,0.4,0.9c0,0.5-0.2,0.8-0.5,1.1
			c-0.4,0.3-0.9,0.4-1.5,0.4c-0.3,0-0.5,0-0.8-0.1c-0.3-0.1-0.6-0.1-0.9-0.2v-0.8c0.3,0.2,0.6,0.3,0.9,0.3s0.6,0.1,0.9,0.1
			c0.4,0,0.7-0.1,0.9-0.2c0.2-0.1,0.3-0.3,0.3-0.6c0-0.2-0.1-0.4-0.2-0.5c-0.1-0.1-0.5-0.2-1-0.3l-0.3-0.1c-0.5-0.1-0.9-0.3-1.1-0.5
			c-0.2-0.2-0.3-0.5-0.3-0.9c0-0.5,0.2-0.8,0.5-1.1s0.8-0.4,1.4-0.4c0.3,0,0.6,0,0.8,0.1C451.7,436.5,451.9,436.5,452.1,436.6z"/>
	</g>
	<g>
		<path d="M621.2,157.9h1.8c1.3,0,2.2,0.3,2.8,0.8s0.9,1.4,0.9,2.5c0,1.1-0.3,2-0.9,2.5s-1.5,0.8-2.8,0.8h-1.8V157.9z M622.1,158.6
			v5.1h1.1c0.9,0,1.6-0.2,2-0.6c0.4-0.4,0.6-1.1,0.6-1.9c0-0.9-0.2-1.5-0.6-1.9c-0.4-0.4-1.1-0.6-2-0.6H622.1z"/>
		<path d="M632.3,161.8v0.4h-3.7c0,0.6,0.2,1,0.5,1.3c0.3,0.3,0.7,0.4,1.3,0.4c0.3,0,0.6,0,0.9-0.1c0.3-0.1,0.6-0.2,0.9-0.3v0.8
			c-0.3,0.1-0.6,0.2-0.9,0.3s-0.6,0.1-0.9,0.1c-0.8,0-1.4-0.2-1.9-0.7c-0.5-0.5-0.7-1.1-0.7-1.9c0-0.8,0.2-1.4,0.7-1.9
			c0.4-0.5,1-0.7,1.8-0.7c0.7,0,1.2,0.2,1.6,0.6C632.1,160.5,632.3,161,632.3,161.8z M631.5,161.5c0-0.4-0.1-0.8-0.4-1.1
			c-0.2-0.3-0.6-0.4-1-0.4c-0.5,0-0.8,0.1-1.1,0.4c-0.3,0.3-0.4,0.6-0.5,1.1L631.5,161.5z"/>
		<path d="M637.8,161.8v0.4h-3.7c0,0.6,0.2,1,0.5,1.3c0.3,0.3,0.7,0.4,1.3,0.4c0.3,0,0.6,0,0.9-0.1c0.3-0.1,0.6-0.2,0.9-0.3v0.8
			c-0.3,0.1-0.6,0.2-0.9,0.3s-0.6,0.1-0.9,0.1c-0.8,0-1.4-0.2-1.9-0.7c-0.5-0.5-0.7-1.1-0.7-1.9c0-0.8,0.2-1.4,0.7-1.9
			c0.4-0.5,1-0.7,1.8-0.7c0.7,0,1.2,0.2,1.6,0.6C637.6,160.5,637.8,161,637.8,161.8z M637,161.5c0-0.4-0.1-0.8-0.4-1.1
			c-0.2-0.3-0.6-0.4-1-0.4c-0.5,0-0.8,0.1-1.1,0.4c-0.3,0.3-0.4,0.6-0.5,1.1L637,161.5z"/>
		<path d="M639.9,163.7v2.6h-0.8v-6.8h0.8v0.7c0.2-0.3,0.4-0.5,0.6-0.7c0.3-0.1,0.6-0.2,0.9-0.2c0.6,0,1.1,0.2,1.5,0.7
			c0.4,0.5,0.6,1.1,0.6,1.9s-0.2,1.4-0.6,1.9c-0.4,0.5-0.9,0.7-1.5,0.7c-0.4,0-0.7-0.1-0.9-0.2C640.3,164.2,640.1,164,639.9,163.7z
			 M642.7,162c0-0.6-0.1-1.1-0.4-1.4c-0.2-0.3-0.6-0.5-1-0.5s-0.8,0.2-1,0.5c-0.2,0.3-0.4,0.8-0.4,1.4s0.1,1.1,0.4,1.4
			c0.2,0.3,0.6,0.5,1,0.5s0.8-0.2,1-0.5C642.6,163,642.7,162.6,642.7,162z"/>
		<path d="M647.8,157.9h0.9v6.1c0,0.8-0.2,1.4-0.5,1.7c-0.3,0.4-0.8,0.5-1.4,0.5h-0.3v-0.7h0.3c0.4,0,0.7-0.1,0.8-0.3
			s0.2-0.6,0.2-1.2V157.9z"/>
		<path d="M652.3,159.4c0.7,0,1.3,0.2,1.7,0.7s0.6,1.1,0.6,1.9c0,0.8-0.2,1.4-0.6,1.9c-0.4,0.5-1,0.7-1.7,0.7
			c-0.7,0-1.3-0.2-1.7-0.7c-0.4-0.5-0.6-1.1-0.6-1.9c0-0.8,0.2-1.4,0.6-1.9C651,159.6,651.6,159.4,652.3,159.4z M652.3,160.1
			c-0.4,0-0.8,0.2-1,0.5c-0.3,0.3-0.4,0.8-0.4,1.4s0.1,1.1,0.4,1.4c0.3,0.3,0.6,0.5,1,0.5c0.4,0,0.8-0.2,1-0.5s0.4-0.8,0.4-1.4
			c0-0.6-0.1-1-0.4-1.4S652.7,160.1,652.3,160.1z"/>
		<path d="M657.9,164.9c-0.2,0.6-0.5,1-0.7,1.1s-0.5,0.3-0.9,0.3h-0.6v-0.7h0.5c0.2,0,0.4-0.1,0.5-0.2s0.3-0.4,0.4-0.7l0.1-0.4
			l-2-4.8h0.9l1.5,3.8l1.5-3.8h0.9L657.9,164.9z"/>
		<path d="M624.9,168.4c-0.4,0.7-0.7,1.3-0.9,2s-0.3,1.3-0.3,2s0.1,1.3,0.3,2c0.2,0.7,0.5,1.3,0.9,2h-0.7c-0.4-0.7-0.8-1.4-1-2
			c-0.2-0.7-0.3-1.3-0.3-2c0-0.7,0.1-1.3,0.3-2s0.5-1.3,1-2H624.9z"/>
		<path d="M631.5,169.2v0.9c-0.3-0.3-0.6-0.5-1-0.6c-0.3-0.1-0.7-0.2-1.1-0.2c-0.8,0-1.3,0.2-1.7,0.7c-0.4,0.5-0.6,1.1-0.6,2
			c0,0.9,0.2,1.5,0.6,2c0.4,0.5,1,0.7,1.7,0.7c0.4,0,0.7-0.1,1.1-0.2c0.3-0.1,0.7-0.3,1-0.6v0.9c-0.3,0.2-0.6,0.4-1,0.5
			c-0.3,0.1-0.7,0.2-1.1,0.2c-1,0-1.8-0.3-2.3-0.9s-0.9-1.4-0.9-2.5c0-1.1,0.3-1.9,0.9-2.5s1.4-0.9,2.3-0.9c0.4,0,0.8,0.1,1.1,0.2
			C630.8,168.8,631.2,169,631.5,169.2z"/>
		<path d="M632.8,168.4h0.8v6.8h-0.8V168.4z"/>
		<path d="M639.1,172.4v2.8h-0.8v-0.7c-0.2,0.3-0.4,0.5-0.7,0.7c-0.3,0.1-0.6,0.2-1,0.2c-0.5,0-0.9-0.1-1.2-0.4
			c-0.3-0.3-0.4-0.7-0.4-1.1c0-0.6,0.2-1,0.6-1.3c0.4-0.3,0.9-0.4,1.7-0.4h1.1v-0.1c0-0.4-0.1-0.7-0.4-0.9c-0.2-0.2-0.6-0.3-1-0.3
			c-0.3,0-0.6,0-0.8,0.1s-0.5,0.2-0.8,0.3v-0.7c0.3-0.1,0.6-0.2,0.9-0.3c0.3-0.1,0.5-0.1,0.8-0.1c0.7,0,1.2,0.2,1.6,0.6
			S639.1,171.7,639.1,172.4z M637.5,172.8c-0.7,0-1.1,0.1-1.4,0.2s-0.4,0.4-0.4,0.8c0,0.3,0.1,0.5,0.3,0.7c0.2,0.2,0.4,0.3,0.8,0.3
			c0.4,0,0.8-0.2,1.1-0.5c0.3-0.3,0.4-0.7,0.4-1.3v-0.2H637.5z"/>
		<path d="M643.7,171.1c-0.1-0.1-0.2-0.1-0.3-0.1c-0.1,0-0.2,0-0.4,0c-0.5,0-0.8,0.1-1.1,0.4c-0.2,0.3-0.4,0.7-0.4,1.3v2.6h-0.8
			v-4.9h0.8v0.8c0.2-0.3,0.4-0.5,0.7-0.7c0.3-0.1,0.6-0.2,1-0.2c0.1,0,0.1,0,0.2,0s0.1,0,0.2,0L643.7,171.1z"/>
		<path d="M644.5,168.4h0.8v1h-0.8V168.4z M644.5,170.3h0.8v4.9h-0.8V170.3z"/>
		<path d="M647.8,168.9v1.4h1.7v0.6h-1.7v2.7c0,0.4,0.1,0.7,0.2,0.8c0.1,0.1,0.3,0.2,0.7,0.2h0.8v0.7h-0.8c-0.6,0-1.1-0.1-1.3-0.3
			c-0.2-0.2-0.4-0.7-0.4-1.3v-2.7h-0.6v-0.6h0.6v-1.4H647.8z"/>
		<path d="M652.6,175.7c-0.2,0.6-0.5,1-0.7,1.1s-0.5,0.3-0.9,0.3h-0.6v-0.7h0.5c0.2,0,0.4-0.1,0.5-0.2s0.3-0.4,0.4-0.7l0.1-0.4
			l-2-4.8h0.9l1.5,3.8l1.5-3.8h0.9L652.6,175.7z"/>
		<path d="M655.7,168.4h0.7c0.4,0.7,0.8,1.4,1,2c0.2,0.7,0.3,1.3,0.3,2c0,0.7-0.1,1.3-0.3,2c-0.2,0.7-0.5,1.3-1,2h-0.7
			c0.4-0.7,0.7-1.3,0.9-2c0.2-0.7,0.3-1.3,0.3-2s-0.1-1.3-0.3-2C656.4,169.8,656.1,169.1,655.7,168.4z"/>
	</g>
	<path class="st9" d="M136.5,320.4c57.5-5,64.5-42.7,104.9-68.2c33-12.9,55.5,42.8,71.5,63.9c17.9,28.9,36.7,59.3,54.4,88.4
		c12.3,19.2,24.4,40.7,41.9,55.7c29.5,24.7,55.2-16.8,70.2-38.4c15.1-22.8,30.2-48,49.9-67.2c13.3-14.3,31.4-23.4,48.7-31.6
		c49.7-26.1,60.4-88.1,80.6-135.6c20.1-52.2,36.5-72.7,62.1-7.6"/>
	<g>
		<path d="M295.9,105.8h3.1c1.1,0,2,0.3,2.6,0.8s0.9,1.3,0.9,2.3c0,1-0.3,1.8-0.9,2.3s-1.5,0.8-2.6,0.8h-1.7v4.1h-1.4V105.8z
			 M297.3,106.9v3.8h1.7c0.6,0,1.1-0.2,1.5-0.5s0.5-0.8,0.5-1.4c0-0.6-0.2-1.1-0.5-1.4s-0.8-0.5-1.5-0.5H297.3z"/>
		<path d="M310.3,111.8v0.6h-5.8c0.1,0.9,0.3,1.5,0.8,2s1.1,0.7,2,0.7c0.5,0,1-0.1,1.4-0.2s0.9-0.3,1.4-0.5v1.2
			c-0.5,0.2-0.9,0.3-1.4,0.4s-1,0.2-1.4,0.2c-1.2,0-2.2-0.4-2.9-1.1s-1.1-1.7-1.1-2.9c0-1.3,0.3-2.2,1-3s1.6-1.1,2.7-1.1
			c1,0,1.8,0.3,2.4,1S310.3,110.7,310.3,111.8z M309.1,111.4c0-0.7-0.2-1.2-0.6-1.6s-0.9-0.6-1.5-0.6c-0.7,0-1.3,0.2-1.7,0.6
			s-0.7,1-0.7,1.7L309.1,111.4z"/>
		<path d="M316.8,109.5c-0.1-0.1-0.3-0.1-0.5-0.2s-0.3-0.1-0.6-0.1c-0.7,0-1.3,0.2-1.6,0.7s-0.6,1.1-0.6,2v4h-1.3v-7.7h1.3v1.2
			c0.3-0.5,0.6-0.8,1-1s0.9-0.3,1.5-0.3c0.1,0,0.2,0,0.3,0s0.2,0,0.3,0.1L316.8,109.5z"/>
		<path d="M323.3,108.6v1.2c-0.4-0.2-0.7-0.3-1.1-0.4s-0.7-0.1-1.1-0.1c-0.8,0-1.4,0.3-1.9,0.8s-0.7,1.2-0.7,2.2s0.2,1.7,0.7,2.2
			s1.1,0.8,1.9,0.8c0.4,0,0.7,0,1.1-0.1s0.7-0.2,1.1-0.4v1.2c-0.4,0.2-0.7,0.3-1.1,0.4s-0.8,0.1-1.2,0.1c-1.2,0-2.1-0.4-2.7-1.1
			s-1-1.7-1-2.9c0-1.2,0.3-2.2,1-2.9s1.6-1.1,2.8-1.1c0.4,0,0.8,0,1.1,0.1S323,108.4,323.3,108.6z"/>
		<path d="M332.1,111.8v0.6h-5.8c0.1,0.9,0.3,1.5,0.8,2s1.1,0.7,2,0.7c0.5,0,1-0.1,1.4-0.2s0.9-0.3,1.4-0.5v1.2
			c-0.5,0.2-0.9,0.3-1.4,0.4s-1,0.2-1.4,0.2c-1.2,0-2.2-0.4-2.9-1.1s-1.1-1.7-1.1-2.9c0-1.3,0.3-2.2,1-3s1.6-1.1,2.7-1.1
			c1,0,1.8,0.3,2.4,1S332.1,110.7,332.1,111.8z M330.8,111.4c0-0.7-0.2-1.2-0.6-1.6s-0.9-0.6-1.5-0.6c-0.7,0-1.3,0.2-1.7,0.6
			s-0.7,1-0.7,1.7L330.8,111.4z"/>
		<path d="M335.4,114.8v4.1h-1.3v-10.6h1.3v1.2c0.3-0.5,0.6-0.8,1-1s0.9-0.3,1.4-0.3c0.9,0,1.7,0.4,2.3,1.1s0.9,1.7,0.9,2.9
			s-0.3,2.2-0.9,2.9s-1.3,1.1-2.3,1.1c-0.6,0-1-0.1-1.4-0.3S335.6,115.3,335.4,114.8z M339.6,112.1c0-0.9-0.2-1.7-0.6-2.2
			s-0.9-0.8-1.6-0.8s-1.2,0.3-1.6,0.8s-0.6,1.3-0.6,2.2s0.2,1.7,0.6,2.2s0.9,0.8,1.6,0.8s1.2-0.3,1.6-0.8S339.6,113.1,339.6,112.1z"
			/>
		<path d="M344.3,106.1v2.2h2.6v1h-2.6v4.2c0,0.6,0.1,1,0.3,1.2s0.5,0.3,1,0.3h1.3v1.1h-1.3c-1,0-1.6-0.2-2-0.5s-0.6-1-0.6-2v-4.2
			h-0.9v-1h0.9v-2.2H344.3z"/>
		<path d="M348.5,105.3h1.3v1.6h-1.3V105.3z M348.5,108.3h1.3v7.7h-1.3V108.3z"/>
		<path d="M355.4,108.1c1.1,0,2,0.4,2.6,1.1s0.9,1.7,0.9,3c0,1.3-0.3,2.2-0.9,2.9s-1.5,1.1-2.6,1.1c-1.1,0-2-0.4-2.6-1.1
			s-0.9-1.7-0.9-2.9c0-1.3,0.3-2.2,0.9-3S354.3,108.1,355.4,108.1z M355.4,109.2c-0.7,0-1.2,0.3-1.6,0.8s-0.6,1.2-0.6,2.2
			s0.2,1.6,0.6,2.2s0.9,0.8,1.6,0.8c0.7,0,1.2-0.3,1.6-0.8s0.6-1.2,0.6-2.2c0-0.9-0.2-1.6-0.6-2.2S356,109.2,355.4,109.2z"/>
		<path d="M367.3,111.3v4.6h-1.3v-4.6c0-0.7-0.1-1.3-0.4-1.6s-0.7-0.5-1.3-0.5c-0.7,0-1.2,0.2-1.6,0.6s-0.6,1-0.6,1.8v4.3h-1.3v-7.7
			h1.3v1.2c0.3-0.5,0.7-0.8,1.1-1s0.9-0.3,1.4-0.3c0.9,0,1.5,0.3,2,0.8S367.3,110.3,367.3,111.3z"/>
		<path d="M374.3,105.8h5.9v1.2h-4.5v3h4v1.2h-4v4.9h-1.4V105.8z"/>
		<path d="M387,111.6v4.4h-1.3v-1.2c-0.3,0.5-0.6,0.8-1.1,1s-1,0.3-1.6,0.3c-0.8,0-1.4-0.2-1.9-0.7s-0.7-1-0.7-1.8
			c0-0.9,0.3-1.5,0.9-1.9s1.4-0.7,2.6-0.7h1.8V111c0-0.6-0.2-1-0.6-1.3s-0.9-0.5-1.6-0.5c-0.4,0-0.9,0.1-1.3,0.2s-0.8,0.3-1.2,0.5
			v-1.2c0.5-0.2,0.9-0.3,1.3-0.4s0.9-0.1,1.3-0.1c1.1,0,1.9,0.3,2.5,0.9S387,110.4,387,111.6z M384.5,112.1c-1,0-1.7,0.1-2.1,0.3
			s-0.6,0.6-0.6,1.2c0,0.4,0.1,0.8,0.4,1.1s0.7,0.4,1.2,0.4c0.7,0,1.3-0.2,1.7-0.7s0.6-1.2,0.6-2v-0.3H384.5z"/>
		<path d="M395.1,108.6v1.2c-0.4-0.2-0.7-0.3-1.1-0.4s-0.7-0.1-1.1-0.1c-0.8,0-1.4,0.3-1.9,0.8s-0.7,1.2-0.7,2.2s0.2,1.7,0.7,2.2
			s1.1,0.8,1.9,0.8c0.4,0,0.7,0,1.1-0.1s0.7-0.2,1.1-0.4v1.2c-0.4,0.2-0.7,0.3-1.1,0.4s-0.8,0.1-1.2,0.1c-1.2,0-2.1-0.4-2.7-1.1
			s-1-1.7-1-2.9c0-1.2,0.3-2.2,1-2.9s1.6-1.1,2.8-1.1c0.4,0,0.8,0,1.1,0.1S394.8,108.4,395.1,108.6z"/>
		<path d="M398.6,106.1v2.2h2.6v1h-2.6v4.2c0,0.6,0.1,1,0.3,1.2s0.5,0.3,1,0.3h1.3v1.1h-1.3c-1,0-1.6-0.2-2-0.5s-0.6-1-0.6-2v-4.2
			h-0.9v-1h0.9v-2.2H398.6z"/>
		<path d="M405.8,108.1c1.1,0,2,0.4,2.6,1.1c0.6,0.7,0.9,1.7,0.9,3c0,1.3-0.3,2.2-0.9,2.9c-0.6,0.7-1.5,1.1-2.6,1.1
			c-1.1,0-2-0.4-2.6-1.1s-0.9-1.7-0.9-2.9c0-1.3,0.3-2.2,0.9-3S404.7,108.1,405.8,108.1z M405.8,109.2c-0.7,0-1.2,0.3-1.6,0.8
			c-0.4,0.5-0.6,1.2-0.6,2.2s0.2,1.6,0.6,2.2s0.9,0.8,1.6,0.8c0.7,0,1.2-0.3,1.6-0.8c0.4-0.5,0.6-1.2,0.6-2.2c0-0.9-0.2-1.6-0.6-2.2
			C407,109.4,406.5,109.2,405.8,109.2z"/>
		<path d="M415.8,109.5c-0.1-0.1-0.3-0.1-0.5-0.2c-0.2,0-0.3-0.1-0.6-0.1c-0.7,0-1.3,0.2-1.6,0.7c-0.4,0.5-0.6,1.1-0.6,2v4h-1.3
			v-7.7h1.3v1.2c0.3-0.5,0.6-0.8,1-1s0.9-0.3,1.5-0.3c0.1,0,0.2,0,0.3,0c0.1,0,0.2,0,0.3,0.1L415.8,109.5z"/>
		<path d="M420.7,108.3h1.3l2.4,6.4l2.4-6.4h1.3l-2.9,7.7h-1.7L420.7,108.3z"/>
		<path d="M434.8,108.5v1.2c-0.4-0.2-0.7-0.3-1.1-0.4s-0.8-0.1-1.2-0.1c-0.6,0-1.1,0.1-1.4,0.3c-0.3,0.2-0.5,0.5-0.5,0.9
			c0,0.3,0.1,0.5,0.3,0.7c0.2,0.2,0.7,0.3,1.3,0.5l0.4,0.1c0.9,0.2,1.5,0.5,1.9,0.8s0.6,0.8,0.6,1.5c0,0.7-0.3,1.3-0.8,1.7
			c-0.6,0.4-1.3,0.6-2.3,0.6c-0.4,0-0.8,0-1.3-0.1s-0.9-0.2-1.4-0.4v-1.3c0.5,0.2,0.9,0.4,1.4,0.5s0.9,0.2,1.3,0.2
			c0.6,0,1-0.1,1.4-0.3c0.3-0.2,0.5-0.5,0.5-0.9c0-0.3-0.1-0.6-0.3-0.8c-0.2-0.2-0.7-0.4-1.5-0.5l-0.4-0.1c-0.8-0.2-1.3-0.4-1.7-0.8
			c-0.3-0.3-0.5-0.8-0.5-1.4c0-0.7,0.3-1.3,0.8-1.7c0.5-0.4,1.2-0.6,2.2-0.6c0.5,0,0.9,0,1.3,0.1S434.4,108.4,434.8,108.5z"/>
		<path d="M437.4,114.2h1.4v1.7h-1.4V114.2z"/>
		<path d="M446.1,105.8h1.4v4.2h5v-4.2h1.4V116h-1.4v-4.9h-5v4.9h-1.4V105.8z"/>
		<path d="M462.6,111.6v4.4h-1.3v-1.2c-0.3,0.5-0.6,0.8-1.1,1s-1,0.3-1.6,0.3c-0.8,0-1.4-0.2-1.9-0.7c-0.5-0.4-0.7-1-0.7-1.8
			c0-0.9,0.3-1.5,0.9-1.9c0.6-0.4,1.4-0.7,2.6-0.7h1.8V111c0-0.6-0.2-1-0.6-1.3c-0.4-0.3-0.9-0.5-1.6-0.5c-0.4,0-0.9,0.1-1.3,0.2
			s-0.8,0.3-1.2,0.5v-1.2c0.5-0.2,0.9-0.3,1.3-0.4s0.9-0.1,1.3-0.1c1.1,0,1.9,0.3,2.5,0.9S462.6,110.4,462.6,111.6z M460.1,112.1
			c-1,0-1.7,0.1-2.1,0.3s-0.6,0.6-0.6,1.2c0,0.4,0.1,0.8,0.4,1.1c0.3,0.3,0.7,0.4,1.2,0.4c0.7,0,1.3-0.2,1.7-0.7
			c0.4-0.5,0.6-1.2,0.6-2v-0.3H460.1z"/>
		<path d="M466.4,114.8v4.1h-1.3v-10.6h1.3v1.2c0.3-0.5,0.6-0.8,1-1c0.4-0.2,0.9-0.3,1.4-0.3c0.9,0,1.7,0.4,2.3,1.1
			c0.6,0.7,0.9,1.7,0.9,2.9s-0.3,2.2-0.9,2.9c-0.6,0.7-1.3,1.1-2.3,1.1c-0.6,0-1-0.1-1.4-0.3C467,115.6,466.7,115.3,466.4,114.8z
			 M470.7,112.1c0-0.9-0.2-1.7-0.6-2.2c-0.4-0.5-0.9-0.8-1.6-0.8s-1.2,0.3-1.6,0.8c-0.4,0.5-0.6,1.3-0.6,2.2s0.2,1.7,0.6,2.2
			c0.4,0.5,0.9,0.8,1.6,0.8s1.2-0.3,1.6-0.8C470.5,113.8,470.7,113.1,470.7,112.1z"/>
		<path d="M475.3,114.8v4.1H474v-10.6h1.3v1.2c0.3-0.5,0.6-0.8,1-1c0.4-0.2,0.9-0.3,1.4-0.3c0.9,0,1.7,0.4,2.3,1.1
			c0.6,0.7,0.9,1.7,0.9,2.9s-0.3,2.2-0.9,2.9c-0.6,0.7-1.3,1.1-2.3,1.1c-0.6,0-1-0.1-1.4-0.3C475.9,115.6,475.6,115.3,475.3,114.8z
			 M479.6,112.1c0-0.9-0.2-1.7-0.6-2.2c-0.4-0.5-0.9-0.8-1.6-0.8s-1.2,0.3-1.6,0.8c-0.4,0.5-0.6,1.3-0.6,2.2s0.2,1.7,0.6,2.2
			c0.4,0.5,0.9,0.8,1.6,0.8s1.2-0.3,1.6-0.8C479.4,113.8,479.6,113.1,479.6,112.1z"/>
		<path d="M483,105.3h1.3v1.6H483V105.3z M483,108.3h1.3v7.7H483V108.3z"/>
		<path d="M493.2,111.3v4.6H492v-4.6c0-0.7-0.1-1.3-0.4-1.6s-0.7-0.5-1.3-0.5c-0.7,0-1.2,0.2-1.6,0.6s-0.6,1-0.6,1.8v4.3h-1.3v-7.7
			h1.3v1.2c0.3-0.5,0.7-0.8,1.1-1c0.4-0.2,0.9-0.3,1.4-0.3c0.9,0,1.5,0.3,2,0.8S493.2,110.3,493.2,111.3z"/>
		<path d="M502.3,111.8v0.6h-5.8c0.1,0.9,0.3,1.5,0.8,2c0.5,0.5,1.1,0.7,2,0.7c0.5,0,1-0.1,1.4-0.2c0.5-0.1,0.9-0.3,1.3-0.5v1.2
			c-0.5,0.2-0.9,0.3-1.4,0.4s-1,0.2-1.4,0.2c-1.2,0-2.2-0.4-2.9-1.1c-0.7-0.7-1.1-1.7-1.1-2.9c0-1.3,0.3-2.2,1-3
			c0.7-0.7,1.6-1.1,2.7-1.1c1,0,1.8,0.3,2.4,1C502,109.8,502.3,110.7,502.3,111.8z M501,111.4c0-0.7-0.2-1.2-0.6-1.6
			c-0.4-0.4-0.9-0.6-1.5-0.6c-0.7,0-1.3,0.2-1.7,0.6c-0.4,0.4-0.7,1-0.7,1.7L501,111.4z"/>
		<path d="M509.2,108.5v1.2c-0.4-0.2-0.7-0.3-1.1-0.4s-0.8-0.1-1.2-0.1c-0.6,0-1.1,0.1-1.4,0.3c-0.3,0.2-0.5,0.5-0.5,0.9
			c0,0.3,0.1,0.5,0.3,0.7s0.7,0.3,1.3,0.5l0.4,0.1c0.9,0.2,1.5,0.5,1.9,0.8c0.4,0.3,0.6,0.8,0.6,1.5c0,0.7-0.3,1.3-0.8,1.7
			c-0.6,0.4-1.3,0.6-2.3,0.6c-0.4,0-0.8,0-1.3-0.1c-0.4-0.1-0.9-0.2-1.4-0.4v-1.3c0.5,0.2,0.9,0.4,1.4,0.5s0.9,0.2,1.3,0.2
			c0.6,0,1-0.1,1.4-0.3s0.5-0.5,0.5-0.9c0-0.3-0.1-0.6-0.3-0.8c-0.2-0.2-0.7-0.4-1.5-0.5l-0.4-0.1c-0.8-0.2-1.3-0.4-1.7-0.8
			s-0.5-0.8-0.5-1.4c0-0.7,0.3-1.3,0.8-1.7s1.2-0.6,2.2-0.6c0.5,0,0.9,0,1.3,0.1S508.9,108.4,509.2,108.5z"/>
		<path d="M516.5,108.5v1.2c-0.4-0.2-0.7-0.3-1.1-0.4s-0.8-0.1-1.2-0.1c-0.6,0-1.1,0.1-1.4,0.3c-0.3,0.2-0.5,0.5-0.5,0.9
			c0,0.3,0.1,0.5,0.3,0.7s0.7,0.3,1.3,0.5l0.4,0.1c0.9,0.2,1.5,0.5,1.9,0.8c0.4,0.3,0.6,0.8,0.6,1.5c0,0.7-0.3,1.3-0.8,1.7
			c-0.6,0.4-1.3,0.6-2.3,0.6c-0.4,0-0.8,0-1.3-0.1c-0.4-0.1-0.9-0.2-1.4-0.4v-1.3c0.5,0.2,0.9,0.4,1.4,0.5s0.9,0.2,1.3,0.2
			c0.6,0,1-0.1,1.4-0.3s0.5-0.5,0.5-0.9c0-0.3-0.1-0.6-0.3-0.8c-0.2-0.2-0.7-0.4-1.5-0.5l-0.4-0.1c-0.8-0.2-1.3-0.4-1.7-0.8
			s-0.5-0.8-0.5-1.4c0-0.7,0.3-1.3,0.8-1.7s1.2-0.6,2.2-0.6c0.5,0,0.9,0,1.3,0.1S516.2,108.4,516.5,108.5z"/>
		<path d="M531.1,106.5v1.5c-0.5-0.4-1-0.8-1.5-1c-0.5-0.2-1.1-0.3-1.7-0.3c-1.2,0-2.1,0.4-2.7,1.1s-0.9,1.7-0.9,3.1
			c0,1.3,0.3,2.4,0.9,3.1s1.5,1.1,2.7,1.1c0.6,0,1.2-0.1,1.7-0.3c0.5-0.2,1-0.5,1.5-1v1.4c-0.5,0.3-1,0.6-1.5,0.7
			c-0.5,0.2-1.1,0.2-1.7,0.2c-1.5,0-2.8-0.5-3.7-1.4s-1.3-2.2-1.3-3.9c0-1.6,0.4-2.9,1.3-3.9s2.1-1.4,3.7-1.4c0.6,0,1.2,0.1,1.7,0.2
			C530.1,106,530.6,106.2,531.1,106.5z"/>
		<path d="M533,112.9v-4.6h1.3v4.6c0,0.7,0.1,1.3,0.4,1.6s0.7,0.5,1.3,0.5c0.7,0,1.2-0.2,1.6-0.6c0.4-0.4,0.6-1,0.6-1.8v-4.3h1.3
			v7.7h-1.3v-1.2c-0.3,0.5-0.7,0.8-1.1,1c-0.4,0.2-0.9,0.3-1.4,0.3c-0.9,0-1.5-0.3-2-0.8S533,114,533,112.9z"/>
		<path d="M546.5,109.5c-0.1-0.1-0.3-0.1-0.5-0.2c-0.2,0-0.4-0.1-0.6-0.1c-0.7,0-1.3,0.2-1.6,0.7c-0.4,0.5-0.6,1.1-0.6,2v4H542v-7.7
			h1.3v1.2c0.3-0.5,0.6-0.8,1-1s0.9-0.3,1.5-0.3c0.1,0,0.2,0,0.3,0s0.2,0,0.3,0.1L546.5,109.5z"/>
		<path d="M546.9,108.3h1.3l2.4,6.4l2.4-6.4h1.3l-2.9,7.7h-1.7L546.9,108.3z"/>
		<path d="M562.6,111.8v0.6h-5.8c0.1,0.9,0.3,1.5,0.8,2c0.5,0.5,1.1,0.7,2,0.7c0.5,0,1-0.1,1.4-0.2c0.5-0.1,0.9-0.3,1.3-0.5v1.2
			c-0.5,0.2-0.9,0.3-1.4,0.4s-1,0.2-1.4,0.2c-1.2,0-2.2-0.4-2.9-1.1c-0.7-0.7-1.1-1.7-1.1-2.9c0-1.3,0.3-2.2,1-3
			c0.7-0.7,1.6-1.1,2.7-1.1c1,0,1.8,0.3,2.4,1C562.3,109.8,562.6,110.7,562.6,111.8z M561.4,111.4c0-0.7-0.2-1.2-0.6-1.6
			c-0.4-0.4-0.9-0.6-1.5-0.6c-0.7,0-1.3,0.2-1.7,0.6c-0.4,0.4-0.7,1-0.7,1.7L561.4,111.4z"/>
	</g>
	<g>
		<path d="M222.1,338.3h0.8v5.4h2.6v0.7h-3.4V338.3z"/>
		<path d="M230.2,342.2c0,1.6-1.1,2.3-2.2,2.3c-1.2,0-2.1-0.9-2.1-2.2c0-1.5,1-2.3,2.2-2.3C229.3,340,230.2,340.9,230.2,342.2z
			 M226.7,342.2c0,1,0.5,1.7,1.3,1.7c0.8,0,1.3-0.7,1.3-1.7c0-0.7-0.4-1.7-1.3-1.7C227.1,340.5,226.7,341.4,226.7,342.2z"/>
		<path d="M231.4,340l0.6,2.2c0.1,0.5,0.2,0.9,0.3,1.4h0c0.1-0.4,0.2-0.9,0.4-1.4l0.7-2.2h0.7l0.7,2.2c0.2,0.5,0.3,1,0.4,1.4h0
			c0.1-0.4,0.2-0.9,0.3-1.4l0.6-2.2h0.8l-1.4,4.4h-0.7l-0.7-2.1c-0.2-0.5-0.3-0.9-0.4-1.4h0c-0.1,0.5-0.2,1-0.4,1.4l-0.7,2.1h-0.7
			l-1.3-4.4H231.4z"/>
		<path d="M239.6,338.4c0.4-0.1,0.9-0.1,1.5-0.1c0.8,0,1.3,0.2,1.7,0.5c0.3,0.3,0.5,0.7,0.5,1.3c0,0.5-0.2,1-0.5,1.3
			c-0.4,0.4-1.1,0.7-1.9,0.7c-0.2,0-0.5,0-0.6-0.1v2.4h-0.8V338.4z M240.4,341.3c0.2,0,0.4,0.1,0.6,0.1c0.9,0,1.5-0.5,1.5-1.3
			c0-0.8-0.6-1.2-1.4-1.2c-0.3,0-0.6,0-0.7,0.1V341.3z"/>
		<path d="M244.4,338.3h3.3v0.7h-2.5v2h2.3v0.6h-2.3v2.7h-0.8V338.3z"/>
		<path d="M252.4,338.2c-0.7,0.9-1.1,2.1-1.1,3.7c0,1.6,0.5,2.7,1.1,3.6h-0.6c-0.6-0.7-1.2-1.9-1.2-3.7c0-1.8,0.6-2.9,1.2-3.7H252.4
			z"/>
		<path d="M256.9,341.4c0,2-0.7,3.1-2,3.1c-1.1,0-1.9-1.1-1.9-3c0-2,0.9-3,2-3C256.2,338.4,256.9,339.5,256.9,341.4z M253.7,341.5
			c0,1.5,0.5,2.4,1.2,2.4c0.8,0,1.2-0.9,1.2-2.4c0-1.4-0.4-2.4-1.2-2.4C254.2,339.1,253.7,339.9,253.7,341.5z"/>
		<path d="M257.7,343.9c0-0.3,0.2-0.6,0.5-0.6c0.3,0,0.5,0.2,0.5,0.6c0,0.3-0.2,0.6-0.5,0.6C257.9,344.5,257.7,344.3,257.7,343.9z"
			/>
		<path d="M263.4,341.4c0,2-0.7,3.1-2,3.1c-1.1,0-1.9-1.1-1.9-3c0-2,0.9-3,2-3C262.7,338.4,263.4,339.5,263.4,341.4z M260.2,341.5
			c0,1.5,0.5,2.4,1.2,2.4c0.8,0,1.2-0.9,1.2-2.4c0-1.4-0.4-2.4-1.2-2.4C260.7,339.1,260.2,339.9,260.2,341.5z"/>
		<path d="M269.8,341.8v0.5h-4v-0.5H269.8z"/>
		<path d="M276.3,341.4c0,2-0.7,3.1-2,3.1c-1.1,0-1.9-1.1-1.9-3c0-2,0.9-3,2-3C275.6,338.4,276.3,339.5,276.3,341.4z M273.1,341.5
			c0,1.5,0.5,2.4,1.2,2.4c0.8,0,1.2-0.9,1.2-2.4c0-1.4-0.4-2.4-1.2-2.4C273.6,339.1,273.1,339.9,273.1,341.5z"/>
		<path d="M277.1,343.9c0-0.3,0.2-0.6,0.5-0.6c0.3,0,0.5,0.2,0.5,0.6c0,0.3-0.2,0.6-0.5,0.6C277.3,344.5,277.1,344.3,277.1,343.9z"
			/>
		<path d="M281.3,344.4v-1.6h-2.7v-0.5l2.6-3.7h0.9v3.6h0.8v0.6h-0.8v1.6H281.3z M281.3,342.2v-2c0-0.3,0-0.6,0-0.9h0
			c-0.2,0.3-0.3,0.6-0.5,0.9l-1.4,2v0H281.3z"/>
		<path d="M283.3,345.5c0.6-0.9,1.1-2.1,1.1-3.7s-0.5-2.8-1.1-3.7h0.6c0.6,0.7,1.2,1.9,1.2,3.7c0,1.8-0.6,2.9-1.2,3.7H283.3z"/>
		<path d="M212.7,349.2c0.5-0.1,1-0.1,1.7-0.1c1.1,0,1.9,0.3,2.5,0.8c0.5,0.5,0.9,1.2,0.9,2.2c0,1-0.3,1.8-0.9,2.4
			c-0.6,0.6-1.5,0.9-2.7,0.9c-0.6,0-1,0-1.4-0.1V349.2z M213.5,354.6c0.2,0,0.5,0,0.8,0c1.7,0,2.6-0.9,2.6-2.6
			c0-1.4-0.8-2.3-2.5-2.3c-0.4,0-0.7,0-0.9,0.1V354.6z"/>
		<path d="M219.1,353.2c0,1.1,0.7,1.5,1.5,1.5c0.6,0,0.9-0.1,1.2-0.2l0.1,0.6c-0.3,0.1-0.8,0.3-1.5,0.3c-1.3,0-2.1-0.9-2.1-2.2
			s0.8-2.3,2-2.3c1.4,0,1.8,1.2,1.8,2c0,0.2,0,0.3,0,0.4H219.1z M221.5,352.6c0-0.5-0.2-1.3-1.1-1.3c-0.8,0-1.2,0.7-1.2,1.3H221.5z"
			/>
		<path d="M223.2,348.8h0.8v6.4h-0.8V348.8z"/>
		<path d="M229,354c0,0.5,0,0.9,0,1.2h-0.7l0-0.7h0c-0.2,0.4-0.7,0.8-1.4,0.8c-0.7,0-1.5-0.4-1.5-1.9v-2.5h0.8v2.4
			c0,0.8,0.3,1.4,1,1.4c0.5,0,0.9-0.4,1-0.7c0-0.1,0.1-0.3,0.1-0.4v-2.7h0.8V354z"/>
		<path d="M230.2,354.4c0.2,0.1,0.7,0.3,1.1,0.3c0.6,0,0.8-0.3,0.8-0.6c0-0.4-0.2-0.6-0.8-0.8c-0.8-0.3-1.2-0.7-1.2-1.2
			c0-0.7,0.6-1.3,1.5-1.3c0.4,0,0.8,0.1,1.1,0.3l-0.2,0.6c-0.2-0.1-0.5-0.3-0.9-0.3c-0.5,0-0.7,0.3-0.7,0.6c0,0.4,0.3,0.5,0.8,0.7
			c0.7,0.3,1.1,0.7,1.1,1.3c0,0.8-0.6,1.3-1.6,1.3c-0.5,0-0.9-0.1-1.2-0.3L230.2,354.4z"/>
		<path d="M234.7,349.6c0,0.3-0.2,0.5-0.5,0.5c-0.3,0-0.5-0.2-0.5-0.5c0-0.3,0.2-0.5,0.5-0.5C234.5,349.1,234.7,349.3,234.7,349.6z
			 M233.8,355.2v-4.4h0.8v4.4H233.8z"/>
		<path d="M239.9,353c0,1.6-1.1,2.3-2.2,2.3c-1.2,0-2.1-0.9-2.1-2.2c0-1.4,1-2.3,2.2-2.3C239,350.8,239.9,351.7,239.9,353z
			 M236.4,353c0,1,0.5,1.7,1.3,1.7c0.8,0,1.3-0.7,1.3-1.7c0-0.7-0.4-1.7-1.3-1.7C236.9,351.3,236.4,352.2,236.4,353z"/>
		<path d="M240.9,352c0-0.5,0-0.8,0-1.2h0.7l0,0.7h0c0.2-0.4,0.7-0.8,1.4-0.8c0.6,0,1.5,0.4,1.5,1.9v2.6h-0.8v-2.5
			c0-0.7-0.3-1.3-1-1.3c-0.5,0-0.9,0.4-1.1,0.8c0,0.1-0.1,0.2-0.1,0.4v2.6h-0.8V352z"/>
		<path d="M248.9,354.2c0,0.4,0,0.7,0.1,1h-0.7l-0.1-0.5h0c-0.2,0.3-0.7,0.6-1.3,0.6c-0.9,0-1.3-0.6-1.3-1.3c0-1.1,0.9-1.6,2.6-1.6
			v-0.1c0-0.4-0.1-1-1-1c-0.4,0-0.8,0.1-1.1,0.3l-0.2-0.5c0.4-0.2,0.9-0.4,1.4-0.4c1.3,0,1.7,0.9,1.7,1.8V354.2z M248.2,353
			c-0.9,0-1.8,0.1-1.8,1c0,0.5,0.3,0.8,0.7,0.8c0.6,0,0.9-0.4,1.1-0.7c0-0.1,0-0.2,0-0.3V353z"/>
		<path d="M250.2,348.8h0.8v6.4h-0.8V348.8z"/>
		<path d="M258.2,353c0,1.6-1.1,2.3-2.2,2.3c-1.2,0-2.1-0.9-2.1-2.2c0-1.4,1-2.3,2.2-2.3C257.4,350.8,258.2,351.7,258.2,353z
			 M254.8,353c0,1,0.5,1.7,1.3,1.7c0.8,0,1.3-0.7,1.3-1.7c0-0.7-0.4-1.7-1.3-1.7C255.2,351.3,254.8,352.2,254.8,353z"/>
		<path d="M259.2,352.2c0-0.5,0-1,0-1.4h0.7l0,0.9h0c0.2-0.6,0.7-1,1.2-1c0.1,0,0.1,0,0.2,0v0.7c-0.1,0-0.2,0-0.3,0
			c-0.6,0-1,0.4-1.1,1c0,0.1,0,0.2,0,0.4v2.3h-0.8V352.2z"/>
		<path d="M264.1,349.2c0.4-0.1,1-0.1,1.5-0.1c0.8,0,1.4,0.2,1.8,0.5c0.3,0.3,0.5,0.7,0.5,1.2c0,0.8-0.5,1.3-1.1,1.5v0
			c0.5,0.2,0.7,0.6,0.9,1.2c0.2,0.8,0.3,1.4,0.5,1.7h-0.8c-0.1-0.2-0.2-0.7-0.4-1.4c-0.2-0.8-0.5-1.2-1.2-1.2h-0.7v2.6h-0.8V349.2z
			 M264.9,352h0.8c0.8,0,1.4-0.5,1.4-1.2c0-0.8-0.6-1.1-1.4-1.1c-0.4,0-0.6,0-0.8,0.1V352z"/>
		<path d="M269.4,353.2c0,1.1,0.7,1.5,1.5,1.5c0.6,0,0.9-0.1,1.2-0.2l0.1,0.6c-0.3,0.1-0.8,0.3-1.5,0.3c-1.3,0-2.1-0.9-2.1-2.2
			s0.8-2.3,2-2.3c1.4,0,1.8,1.2,1.8,2c0,0.2,0,0.3,0,0.4H269.4z M271.7,352.6c0-0.5-0.2-1.3-1.1-1.3c-0.8,0-1.2,0.7-1.2,1.3H271.7z"
			/>
		<path d="M276.5,354.2c0,0.4,0,0.7,0.1,1h-0.7l-0.1-0.5h0c-0.2,0.3-0.7,0.6-1.3,0.6c-0.9,0-1.3-0.6-1.3-1.3c0-1.1,0.9-1.6,2.6-1.6
			v-0.1c0-0.4-0.1-1-1-1c-0.4,0-0.8,0.1-1.1,0.3l-0.2-0.5c0.4-0.2,0.9-0.4,1.4-0.4c1.3,0,1.7,0.9,1.7,1.8V354.2z M275.7,353
			c-0.9,0-1.8,0.1-1.8,1c0,0.5,0.3,0.8,0.7,0.8c0.6,0,0.9-0.4,1.1-0.7c0-0.1,0-0.2,0-0.3V353z"/>
		<path d="M280.9,355c-0.2,0.1-0.7,0.3-1.3,0.3c-1.3,0-2.2-0.9-2.2-2.2c0-1.3,0.9-2.3,2.3-2.3c0.5,0,0.9,0.1,1.1,0.2l-0.2,0.6
			c-0.2-0.1-0.5-0.2-0.9-0.2c-1,0-1.5,0.7-1.5,1.6c0,1,0.6,1.6,1.5,1.6c0.4,0,0.7-0.1,1-0.2L280.9,355z"/>
		<path d="M282.9,349.8v1h1.1v0.6h-1.1v2.3c0,0.5,0.2,0.8,0.6,0.8c0.2,0,0.3,0,0.5-0.1l0,0.6c-0.2,0.1-0.4,0.1-0.7,0.1
			c-0.4,0-0.7-0.1-0.9-0.3c-0.2-0.2-0.3-0.6-0.3-1.1v-2.4h-0.7v-0.6h0.7V350L282.9,349.8z"/>
		<path d="M285.8,349.6c0,0.3-0.2,0.5-0.5,0.5c-0.3,0-0.5-0.2-0.5-0.5c0-0.3,0.2-0.5,0.5-0.5C285.6,349.1,285.8,349.3,285.8,349.6z
			 M284.9,355.2v-4.4h0.8v4.4H284.9z"/>
		<path d="M287.3,350.8l0.9,2.4c0.1,0.4,0.3,0.8,0.4,1.1h0c0.1-0.4,0.2-0.7,0.4-1.1l0.8-2.4h0.8l-1.7,4.4h-0.8l-1.7-4.4H287.3z"/>
		<path d="M291.7,353.2c0,1.1,0.7,1.5,1.5,1.5c0.6,0,0.9-0.1,1.2-0.2l0.1,0.6c-0.3,0.1-0.8,0.3-1.5,0.3c-1.3,0-2.1-0.9-2.1-2.2
			s0.8-2.3,2-2.3c1.4,0,1.8,1.2,1.8,2c0,0.2,0,0.3,0,0.4H291.7z M294,352.6c0-0.5-0.2-1.3-1.1-1.3c-0.8,0-1.2,0.7-1.2,1.3H294z"/>
	</g>
	<g>
		<g>
			<g>
				<path d="M78.3,454.2c1,0,1.7,0.4,2.2,1.2s0.8,1.9,0.8,3.4c0,1.5-0.3,2.6-0.8,3.4s-1.3,1.2-2.2,1.2s-1.7-0.4-2.2-1.2
					s-0.8-1.9-0.8-3.4c0-1.5,0.3-2.6,0.8-3.4S77.3,454.2,78.3,454.2z M78.3,455.1c-0.6,0-1.1,0.3-1.4,0.9s-0.5,1.5-0.5,2.7
					c0,1.2,0.2,2.1,0.5,2.7s0.8,0.9,1.4,0.9c0.6,0,1.1-0.3,1.4-0.9s0.5-1.5,0.5-2.7c0-1.2-0.2-2.1-0.5-2.7S78.9,455.1,78.3,455.1z"
					/>
				<path d="M83.4,461.6h1.2v1.5h-1.2V461.6z"/>
				<path d="M86.9,454.3h5.6v0.5l-3.2,8.2h-1.2l3-7.8h-4.2V454.3z"/>
				<path d="M94.8,454.3h4.6v1h-3.6v2.1c0.2-0.1,0.3-0.1,0.5-0.1s0.3,0,0.5,0c1,0,1.8,0.3,2.3,0.8s0.9,1.3,0.9,2.2
					c0,0.9-0.3,1.7-0.9,2.2s-1.4,0.8-2.5,0.8c-0.4,0-0.7,0-1.1-0.1s-0.8-0.2-1.2-0.3v-1.2c0.4,0.2,0.7,0.3,1.1,0.4s0.8,0.1,1.2,0.1
					c0.7,0,1.2-0.2,1.6-0.5s0.6-0.8,0.6-1.4s-0.2-1.1-0.6-1.4s-0.9-0.5-1.6-0.5c-0.3,0-0.6,0-0.9,0.1s-0.6,0.2-1,0.3V454.3z"/>
			</g>
		</g>
		<path d="M69,458.3h4.8v0.8H69V458.3z"/>
	</g>
</g>
<g id="CADtools_Dimensions">
	
		<line id="Dimension_line_00000170267105394149449490000002175378355980698279_" class="st10" x1="298.3" y1="347.2" x2="370.3" y2="347.2"/>
	
		<line id="Dimension_line_00000076585590233895329980000014595270718050979972_" class="st10" x1="136.8" y1="347.2" x2="208.8" y2="347.2"/>
	<polyline id="Terminator_00000059291360646607665240000010293361759643168406_" class="st11" points="145.4,344.5 136.8,347.2 
		145.4,349.9 	"/>
	<polyline id="Terminator_00000021119972422983102250000002872433660664065207_" class="st11" points="361.7,349.9 370.3,347.2 
		361.7,344.5 	"/>
	
		<line id="Dimension_line_00000012470567499717504660000004853659619828189090_" class="st11" x1="513.7" y1="347.2" x2="574.9" y2="347.2"/>
	
		<line id="Dimension_line_00000114771675218481940770000007129565967892382373_" class="st11" x1="370.3" y1="347.2" x2="431.5" y2="347.2"/>
	<polyline id="Terminator_00000152968811015662891620000017551489617075152301_" class="st11" points="378.9,344.5 370.3,347.2 
		378.9,349.9 	"/>
	<polyline id="Terminator_00000166638016960421823040000003405416429371340213_" class="st11" points="566.3,349.9 574.9,347.2 
		566.3,344.5 	"/>
	
		<line id="Dimension_line_00000048473717999953885610000014599468681154067633_" class="st11" x1="686.7" y1="347.2" x2="720.9" y2="347.1"/>
	
		<line id="Dimension_line_00000178925372599287119000000016274664799576078779_" class="st11" x1="574.9" y1="347.2" x2="609.1" y2="347.2"/>
	<polyline id="Terminator_00000119097416458882974480000006442178592599384708_" class="st11" points="583.4,344.5 574.9,347.2 
		583.4,349.9 	"/>
	<polyline id="Terminator_00000174573525972296679900000007046048870179355577_" class="st11" points="712.4,349.9 720.9,347.2 
		712.4,344.5 	"/>
	<g>
		<g>
			<path d="M444.5,341.7c0-0.8-0.1-1.9-0.1-2.6h0c-0.2,0.7-0.5,1.5-0.8,2.3l-1.1,2.9H442l-1-2.9c-0.3-0.9-0.5-1.6-0.7-2.4h0
				c0,0.8-0.1,1.8-0.1,2.7l-0.2,2.6h-0.7l0.4-6.1h1l1,2.9c0.3,0.7,0.5,1.4,0.6,2h0c0.2-0.6,0.4-1.3,0.6-2l1.1-2.9h1l0.4,6.1h-0.8
				L444.5,341.7z"/>
			<path d="M447.6,338.8c0,0.3-0.2,0.5-0.5,0.5c-0.3,0-0.5-0.2-0.5-0.5c0-0.3,0.2-0.5,0.5-0.5C447.4,338.3,447.6,338.5,447.6,338.8z
				 M446.7,344.4V340h0.8v4.4H446.7z"/>
			<path d="M452.6,338v5.3c0,0.4,0,0.8,0,1.1h-0.7l0-0.8h0c-0.2,0.5-0.8,0.9-1.5,0.9c-1.1,0-1.9-0.9-1.9-2.2c0-1.4,0.9-2.3,2-2.3
				c0.7,0,1.1,0.3,1.3,0.7h0V338H452.6z M451.8,341.8c0-0.1,0-0.2,0-0.3c-0.1-0.5-0.5-0.9-1.1-0.9c-0.8,0-1.3,0.7-1.3,1.7
				c0,0.9,0.4,1.6,1.3,1.6c0.5,0,1-0.4,1.2-0.9c0-0.1,0-0.2,0-0.3V341.8z"/>
			<path d="M455.8,338.4c0.4-0.1,0.9-0.1,1.5-0.1c0.8,0,1.3,0.2,1.7,0.5c0.3,0.3,0.5,0.7,0.5,1.3c0,0.5-0.2,1-0.5,1.3
				c-0.4,0.4-1.1,0.7-1.9,0.7c-0.2,0-0.5,0-0.6-0.1v2.4h-0.8V338.4z M456.6,341.3c0.2,0,0.4,0.1,0.6,0.1c0.9,0,1.5-0.5,1.5-1.3
				c0-0.8-0.6-1.2-1.4-1.2c-0.3,0-0.6,0-0.7,0.1V341.3z"/>
			<path d="M460.6,338.3h3.3v0.7h-2.5v2h2.3v0.6h-2.3v2.7h-0.8V338.3z"/>
			<path d="M468.6,338.2c-0.7,0.9-1.1,2.1-1.1,3.7c0,1.6,0.5,2.7,1.1,3.6H468c-0.6-0.7-1.2-1.9-1.2-3.7c0-1.8,0.6-2.9,1.2-3.7H468.6
				z"/>
			<path d="M473.1,341.4c0,2-0.7,3.1-2,3.1c-1.1,0-1.9-1.1-1.9-3c0-2,0.9-3,2-3C472.4,338.4,473.1,339.5,473.1,341.4z M469.9,341.5
				c0,1.5,0.5,2.4,1.2,2.4c0.8,0,1.2-0.9,1.2-2.4c0-1.4-0.4-2.4-1.2-2.4C470.4,339.1,469.9,339.9,469.9,341.5z"/>
			<path d="M473.9,343.9c0-0.3,0.2-0.6,0.5-0.6c0.3,0,0.5,0.2,0.5,0.6c0,0.3-0.2,0.6-0.5,0.6C474.1,344.5,473.9,344.3,473.9,343.9z"
				/>
			<path d="M478.1,344.4v-1.6h-2.7v-0.5l2.6-3.7h0.9v3.6h0.8v0.6h-0.8v1.6H478.1z M478.1,342.2v-2c0-0.3,0-0.6,0-0.9h0
				c-0.2,0.3-0.3,0.6-0.5,0.9l-1.4,2v0H478.1z"/>
			<path d="M486,341.8v0.5h-4v-0.5H486z"/>
			<path d="M492.5,341.4c0,2-0.7,3.1-2,3.1c-1.1,0-1.9-1.1-1.9-3c0-2,0.9-3,2-3C491.8,338.4,492.5,339.5,492.5,341.4z M489.3,341.5
				c0,1.5,0.5,2.4,1.2,2.4c0.8,0,1.2-0.9,1.2-2.4c0-1.4-0.4-2.4-1.2-2.4C489.8,339.1,489.3,339.9,489.3,341.5z"/>
			<path d="M493.3,343.9c0-0.3,0.2-0.6,0.5-0.6c0.3,0,0.5,0.2,0.5,0.6c0,0.3-0.2,0.6-0.5,0.6C493.5,344.5,493.3,344.3,493.3,343.9z"
				/>
			<path d="M498.9,338.5v0.5l-2.5,5.3h-0.8l2.5-5.2v0h-2.9v-0.7H498.9z"/>
			<path d="M503.2,339.2H501l-0.2,1.5c0.1,0,0.3,0,0.5,0c0.5,0,0.9,0.1,1.3,0.3c0.5,0.3,0.8,0.8,0.8,1.5c0,1.1-0.9,2-2.2,2
				c-0.6,0-1.2-0.2-1.5-0.4l0.2-0.6c0.2,0.1,0.7,0.3,1.3,0.3c0.7,0,1.4-0.5,1.4-1.3c0-0.8-0.5-1.3-1.7-1.3c-0.3,0-0.6,0-0.8,0.1
				l0.4-2.8h2.8V339.2z"/>
			<path d="M504.1,345.5c0.6-0.9,1.1-2.1,1.1-3.7c0-1.6-0.5-2.8-1.1-3.7h0.6c0.6,0.7,1.2,1.9,1.2,3.7c0,1.8-0.6,2.9-1.2,3.7H504.1z"
				/>
			<path d="M441.8,349.2c0.5-0.1,1-0.1,1.7-0.1c1.1,0,1.9,0.3,2.5,0.8c0.5,0.5,0.9,1.2,0.9,2.2c0,1-0.3,1.8-0.9,2.4
				c-0.6,0.6-1.5,0.9-2.7,0.9c-0.6,0-1,0-1.4-0.1V349.2z M442.6,354.6c0.2,0,0.5,0,0.8,0c1.7,0,2.6-0.9,2.6-2.6
				c0-1.4-0.8-2.3-2.5-2.3c-0.4,0-0.7,0-0.9,0.1V354.6z"/>
			<path d="M448.7,349.6c0,0.3-0.2,0.5-0.5,0.5c-0.3,0-0.5-0.2-0.5-0.5c0-0.3,0.2-0.5,0.5-0.5C448.5,349.1,448.7,349.3,448.7,349.6z
				 M447.8,355.2v-4.4h0.8v4.4H447.8z"/>
			<path d="M449.8,354.4c0.2,0.1,0.7,0.3,1.1,0.3c0.6,0,0.8-0.3,0.8-0.6c0-0.4-0.2-0.6-0.8-0.8c-0.8-0.3-1.2-0.7-1.2-1.2
				c0-0.7,0.6-1.3,1.5-1.3c0.4,0,0.8,0.1,1.1,0.3l-0.2,0.6c-0.2-0.1-0.5-0.3-0.9-0.3c-0.5,0-0.7,0.3-0.7,0.6c0,0.4,0.3,0.5,0.8,0.7
				c0.7,0.3,1.1,0.7,1.1,1.3c0,0.8-0.6,1.3-1.6,1.3c-0.5,0-0.9-0.1-1.2-0.3L449.8,354.4z"/>
			<path d="M456.6,355c-0.2,0.1-0.7,0.3-1.3,0.3c-1.3,0-2.2-0.9-2.2-2.2c0-1.3,0.9-2.3,2.3-2.3c0.5,0,0.9,0.1,1.1,0.2l-0.2,0.6
				c-0.2-0.1-0.5-0.2-0.9-0.2c-1,0-1.5,0.7-1.5,1.6c0,1,0.6,1.6,1.5,1.6c0.5,0,0.7-0.1,1-0.2L456.6,355z"/>
			<path d="M461.4,353c0,1.6-1.1,2.3-2.2,2.3c-1.2,0-2.1-0.9-2.1-2.2c0-1.4,1-2.3,2.2-2.3C460.5,350.8,461.4,351.7,461.4,353z
				 M457.9,353c0,1,0.5,1.7,1.3,1.7c0.8,0,1.3-0.7,1.3-1.7c0-0.7-0.4-1.7-1.3-1.7C458.3,351.3,457.9,352.2,457.9,353z"/>
			<path d="M462.4,352c0-0.5,0-0.8,0-1.2h0.7l0,0.7h0c0.2-0.4,0.6-0.8,1.4-0.8c0.6,0,1,0.4,1.2,0.9h0c0.1-0.3,0.3-0.4,0.5-0.6
				c0.3-0.2,0.5-0.3,1-0.3c0.6,0,1.4,0.4,1.4,1.9v2.6h-0.8v-2.5c0-0.8-0.3-1.3-0.9-1.3c-0.5,0-0.8,0.3-0.9,0.7
				c0,0.1-0.1,0.3-0.1,0.4v2.7h-0.8v-2.6c0-0.7-0.3-1.2-0.9-1.2c-0.5,0-0.9,0.4-1,0.8c0,0.1-0.1,0.3-0.1,0.4v2.6h-0.8V352z"/>
			<path d="M470,355.2v-3.8h-0.6v-0.6h0.6v-0.2c0-0.6,0.1-1.2,0.5-1.5c0.3-0.3,0.7-0.4,1.1-0.4c0.3,0,0.5,0.1,0.7,0.1l-0.1,0.6
				c-0.1-0.1-0.3-0.1-0.5-0.1c-0.7,0-0.8,0.6-0.8,1.3v0.2h1.1v0.6h-1.1v3.8H470z"/>
			<path d="M476.3,353c0,1.6-1.1,2.3-2.2,2.3c-1.2,0-2.1-0.9-2.1-2.2c0-1.4,1-2.3,2.2-2.3C475.5,350.8,476.3,351.7,476.3,353z
				 M472.9,353c0,1,0.5,1.7,1.3,1.7c0.8,0,1.3-0.7,1.3-1.7c0-0.7-0.4-1.7-1.3-1.7C473.3,351.3,472.9,352.2,472.9,353z"/>
			<path d="M477.3,352.2c0-0.5,0-1,0-1.4h0.7l0,0.9h0c0.2-0.6,0.7-1,1.2-1c0.1,0,0.1,0,0.2,0v0.7c-0.1,0-0.2,0-0.3,0
				c-0.6,0-1,0.4-1.1,1c0,0.1,0,0.2,0,0.4v2.3h-0.8V352.2z"/>
			<path d="M481.5,349.8v1h1.1v0.6h-1.1v2.3c0,0.5,0.2,0.8,0.6,0.8c0.2,0,0.3,0,0.5-0.1l0,0.6c-0.2,0.1-0.4,0.1-0.7,0.1
				c-0.4,0-0.7-0.1-0.9-0.3c-0.2-0.2-0.3-0.6-0.3-1.1v-2.4H480v-0.6h0.7V350L481.5,349.8z"/>
			<path d="M485,354.7l3.4-4.9v0h-3.1v-0.7h4.1v0.5l-3.3,4.9v0h3.4v0.7H485V354.7z"/>
			<path d="M494.2,353c0,1.6-1.1,2.3-2.2,2.3c-1.2,0-2.1-0.9-2.1-2.2c0-1.4,1-2.3,2.2-2.3C493.4,350.8,494.2,351.7,494.2,353z
				 M490.8,353c0,1,0.5,1.7,1.3,1.7c0.8,0,1.3-0.7,1.3-1.7c0-0.7-0.4-1.7-1.3-1.7C491.2,351.3,490.8,352.2,490.8,353z"/>
			<path d="M495.2,352c0-0.5,0-0.8,0-1.2h0.7l0,0.7h0c0.2-0.4,0.7-0.8,1.4-0.8c0.6,0,1.5,0.4,1.5,1.9v2.6h-0.8v-2.5
				c0-0.7-0.3-1.3-1-1.3c-0.5,0-0.9,0.4-1.1,0.8c0,0.1-0.1,0.2-0.1,0.4v2.6h-0.8V352z"/>
			<path d="M500.6,353.2c0,1.1,0.7,1.5,1.5,1.5c0.6,0,0.9-0.1,1.2-0.2l0.1,0.6c-0.3,0.1-0.8,0.3-1.5,0.3c-1.3,0-2.1-0.9-2.1-2.2
				s0.8-2.3,2-2.3c1.4,0,1.8,1.2,1.8,2c0,0.2,0,0.3,0,0.4H500.6z M503,352.6c0-0.5-0.2-1.3-1.1-1.3c-0.8,0-1.2,0.7-1.2,1.3H503z"/>
		</g>
	</g>
	<g>
		<g>
			<path d="M613.7,338.3v2.5h2.9v-2.5h0.8v6.1h-0.8v-2.8h-2.9v2.8h-0.8v-6.1H613.7z"/>
			<path d="M619.7,338.8c0,0.3-0.2,0.5-0.5,0.5c-0.3,0-0.5-0.2-0.5-0.5c0-0.3,0.2-0.5,0.5-0.5C619.5,338.3,619.7,338.5,619.7,338.8z
				 M618.9,344.4V340h0.8v4.4H618.9z"/>
			<path d="M624.7,343.8c0,1-0.2,1.6-0.6,2c-0.4,0.4-1,0.5-1.6,0.5c-0.5,0-1.1-0.1-1.4-0.4l0.2-0.6c0.3,0.2,0.7,0.4,1.3,0.4
				c0.8,0,1.4-0.4,1.4-1.5v-0.5h0c-0.2,0.4-0.7,0.7-1.4,0.7c-1.1,0-1.9-0.9-1.9-2.1c0-1.5,1-2.3,2-2.3c0.8,0,1.2,0.4,1.4,0.7h0
				l0-0.7h0.7c0,0.3,0,0.7,0,1.2V343.8z M623.9,341.8c0-0.1,0-0.3,0-0.4c-0.1-0.5-0.5-0.8-1.1-0.8c-0.8,0-1.3,0.6-1.3,1.6
				c0,0.9,0.4,1.6,1.3,1.6c0.5,0,0.9-0.3,1.1-0.8c0-0.1,0.1-0.3,0.1-0.4V341.8z"/>
			<path d="M626,338h0.8v2.7h0c0.1-0.2,0.3-0.4,0.6-0.6c0.2-0.1,0.5-0.2,0.8-0.2c0.6,0,1.5,0.4,1.5,1.9v2.6h-0.8v-2.5
				c0-0.7-0.3-1.3-1-1.3c-0.5,0-0.9,0.4-1.1,0.8c0,0.1-0.1,0.2-0.1,0.4v2.6H626V338z"/>
			<path d="M632.9,338.4c0.4-0.1,0.9-0.1,1.5-0.1c0.8,0,1.3,0.2,1.7,0.5c0.3,0.3,0.5,0.7,0.5,1.3c0,0.5-0.2,1-0.5,1.3
				c-0.4,0.4-1.1,0.7-1.9,0.7c-0.2,0-0.5,0-0.6-0.1v2.4h-0.8V338.4z M633.7,341.3c0.2,0,0.4,0.1,0.6,0.1c0.9,0,1.5-0.5,1.5-1.3
				c0-0.8-0.6-1.2-1.4-1.2c-0.3,0-0.6,0-0.7,0.1V341.3z"/>
			<path d="M637.7,338.3h3.3v0.7h-2.5v2h2.3v0.6h-2.3v2.7h-0.8V338.3z"/>
			<path d="M645.7,338.2c-0.7,0.9-1.1,2.1-1.1,3.7c0,1.6,0.5,2.7,1.1,3.6h-0.6c-0.6-0.7-1.2-1.9-1.2-3.7c0-1.8,0.6-2.9,1.2-3.7
				H645.7z"/>
			<path d="M650.2,341.4c0,2-0.7,3.1-2,3.1c-1.1,0-1.9-1.1-1.9-3c0-2,0.9-3,2-3C649.5,338.4,650.2,339.5,650.2,341.4z M647,341.5
				c0,1.5,0.5,2.4,1.2,2.4c0.8,0,1.2-0.9,1.2-2.4c0-1.4-0.4-2.4-1.2-2.4C647.5,339.1,647,339.9,647,341.5z"/>
			<path d="M651,343.9c0-0.3,0.2-0.6,0.5-0.6c0.3,0,0.5,0.2,0.5,0.6c0,0.3-0.2,0.6-0.5,0.6C651.2,344.5,651,344.3,651,343.9z"/>
			<path d="M656.6,338.5v0.5l-2.5,5.3h-0.8l2.5-5.2v0h-2.9v-0.7H656.6z"/>
			<path d="M660.9,339.2h-2.2l-0.2,1.5c0.1,0,0.3,0,0.5,0c0.5,0,0.9,0.1,1.3,0.3c0.5,0.3,0.8,0.8,0.8,1.5c0,1.1-0.9,2-2.2,2
				c-0.6,0-1.2-0.2-1.5-0.4l0.2-0.6c0.2,0.1,0.7,0.3,1.3,0.3c0.7,0,1.4-0.5,1.4-1.3c0-0.8-0.5-1.3-1.7-1.3c-0.3,0-0.6,0-0.8,0.1
				l0.4-2.8h2.8V339.2z"/>
			<path d="M667.7,341.8v0.5h-4v-0.5H667.7z"/>
			<path d="M672,339.3L672,339.3l-1,0.5l-0.2-0.6l1.3-0.7h0.7v5.9H672V339.3z"/>
			<path d="M675,343.9c0-0.3,0.2-0.6,0.5-0.6c0.3,0,0.5,0.2,0.5,0.6c0,0.3-0.2,0.6-0.5,0.6C675.2,344.5,675,344.3,675,343.9z"/>
			<path d="M680.7,341.4c0,2-0.7,3.1-2,3.1c-1.1,0-1.9-1.1-1.9-3c0-2,0.9-3,2-3C680,338.4,680.7,339.5,680.7,341.4z M677.5,341.5
				c0,1.5,0.5,2.4,1.2,2.4c0.8,0,1.2-0.9,1.2-2.4c0-1.4-0.4-2.4-1.2-2.4C678,339.1,677.5,339.9,677.5,341.5z"/>
			<path d="M681.2,345.5c0.6-0.9,1.1-2.1,1.1-3.7s-0.5-2.8-1.1-3.7h0.6c0.6,0.7,1.2,1.9,1.2,3.7c0,1.8-0.6,2.9-1.2,3.7H681.2z"/>
			<path d="M620.7,355c-0.3,0.1-0.9,0.3-1.6,0.3c-1.7,0-3-1.1-3-3.1c0-1.9,1.3-3.2,3.2-3.2c0.7,0,1.2,0.2,1.4,0.3l-0.2,0.6
				c-0.3-0.1-0.7-0.3-1.2-0.3c-1.4,0-2.4,0.9-2.4,2.5c0,1.5,0.9,2.4,2.3,2.4c0.5,0,1-0.1,1.3-0.3L620.7,355z"/>
			<path d="M621.7,348.8h0.8v6.4h-0.8V348.8z"/>
			<path d="M626.9,354.2c0,0.4,0,0.7,0.1,1h-0.7l-0.1-0.5h0c-0.2,0.3-0.7,0.6-1.3,0.6c-0.9,0-1.3-0.6-1.3-1.3c0-1.1,0.9-1.6,2.6-1.6
				v-0.1c0-0.4-0.1-1-1-1c-0.4,0-0.8,0.1-1.1,0.3l-0.2-0.5c0.4-0.2,0.9-0.4,1.4-0.4c1.3,0,1.7,0.9,1.7,1.8V354.2z M626.1,353
				c-0.9,0-1.8,0.1-1.8,1c0,0.5,0.3,0.8,0.7,0.8c0.6,0,0.9-0.4,1.1-0.7c0-0.1,0-0.2,0-0.3V353z"/>
			<path d="M628.1,352.2c0-0.5,0-1,0-1.4h0.7l0,0.9h0c0.2-0.6,0.7-1,1.2-1c0.1,0,0.1,0,0.2,0v0.7c-0.1,0-0.2,0-0.3,0
				c-0.6,0-1,0.4-1.1,1c0,0.1,0,0.2,0,0.4v2.3h-0.8V352.2z"/>
			<path d="M632,349.6c0,0.3-0.2,0.5-0.5,0.5c-0.3,0-0.5-0.2-0.5-0.5c0-0.3,0.2-0.5,0.5-0.5C631.8,349.1,632,349.3,632,349.6z
				 M631.1,355.2v-4.4h0.8v4.4H631.1z"/>
			<path d="M634.2,349.8v1h1.1v0.6h-1.1v2.3c0,0.5,0.2,0.8,0.6,0.8c0.2,0,0.3,0,0.5-0.1l0,0.6c-0.2,0.1-0.4,0.1-0.7,0.1
				c-0.4,0-0.7-0.1-0.9-0.3c-0.2-0.2-0.3-0.6-0.3-1.1v-2.4h-0.7v-0.6h0.7V350L634.2,349.8z"/>
			<path d="M636.6,350.8l0.9,2.6c0.1,0.3,0.2,0.6,0.3,0.9h0c0.1-0.3,0.2-0.6,0.3-0.9l0.9-2.6h0.8l-1.2,3.1c-0.6,1.5-1,2.2-1.5,2.7
				c-0.4,0.3-0.8,0.5-1,0.5l-0.2-0.7c0.2-0.1,0.5-0.2,0.7-0.4c0.2-0.2,0.5-0.5,0.7-0.9c0-0.1,0.1-0.1,0.1-0.2s0-0.1-0.1-0.2l-1.6-4
				H636.6z"/>
			<path d="M645.5,354.2c0,0.4,0,0.7,0.1,1h-0.7l-0.1-0.5h0c-0.2,0.3-0.7,0.6-1.3,0.6c-0.9,0-1.3-0.6-1.3-1.3c0-1.1,0.9-1.6,2.6-1.6
				v-0.1c0-0.4-0.1-1-1-1c-0.4,0-0.8,0.1-1.1,0.3l-0.2-0.5c0.4-0.2,0.9-0.4,1.4-0.4c1.3,0,1.7,0.9,1.7,1.8V354.2z M644.7,353
				c-0.9,0-1.8,0.1-1.8,1c0,0.5,0.3,0.8,0.7,0.8c0.6,0,0.9-0.4,1.1-0.7c0-0.1,0-0.2,0-0.3V353z"/>
			<path d="M646.8,352c0-0.5,0-0.8,0-1.2h0.7l0,0.7h0c0.2-0.4,0.7-0.8,1.4-0.8c0.6,0,1.5,0.4,1.5,1.9v2.6h-0.8v-2.5
				c0-0.7-0.3-1.3-1-1.3c-0.5,0-0.9,0.4-1.1,0.8c0,0.1-0.1,0.2-0.1,0.4v2.6h-0.8V352z"/>
			<path d="M655.5,348.8v5.3c0,0.4,0,0.8,0,1.1h-0.7l0-0.8h0c-0.2,0.5-0.8,0.9-1.5,0.9c-1.1,0-1.9-0.9-1.9-2.2c0-1.5,0.9-2.3,2-2.3
				c0.7,0,1.1,0.3,1.3,0.7h0v-2.6H655.5z M654.7,352.6c0-0.1,0-0.2,0-0.3c-0.1-0.5-0.5-0.9-1.1-0.9c-0.8,0-1.3,0.7-1.3,1.7
				c0,0.9,0.4,1.6,1.3,1.6c0.5,0,1-0.4,1.2-0.9c0-0.1,0-0.2,0-0.3V352.6z"/>
			<path d="M658.8,349.2c0.4-0.1,0.9-0.1,1.5-0.1c0.8,0,1.3,0.2,1.7,0.5c0.3,0.3,0.5,0.7,0.5,1.3c0,0.5-0.2,1-0.5,1.3
				c-0.4,0.4-1.1,0.7-1.9,0.7c-0.2,0-0.5,0-0.6-0.1v2.4h-0.8V349.2z M659.6,352.1c0.2,0,0.4,0.1,0.6,0.1c0.9,0,1.5-0.5,1.5-1.3
				c0-0.8-0.6-1.2-1.4-1.2c-0.3,0-0.6,0-0.7,0.1V352.1z"/>
			<path d="M663.8,353.2c0,1.1,0.7,1.5,1.5,1.5c0.6,0,0.9-0.1,1.2-0.2l0.1,0.6c-0.3,0.1-0.8,0.3-1.5,0.3c-1.3,0-2.1-0.9-2.1-2.2
				s0.8-2.3,2-2.3c1.4,0,1.8,1.2,1.8,2c0,0.2,0,0.3,0,0.4H663.8z M666.1,352.6c0-0.5-0.2-1.3-1.1-1.3c-0.8,0-1.2,0.7-1.2,1.3H666.1z
				"/>
			<path d="M670.9,354.2c0,0.4,0,0.7,0.1,1h-0.7l-0.1-0.5h0c-0.2,0.3-0.7,0.6-1.3,0.6c-0.9,0-1.3-0.6-1.3-1.3c0-1.1,0.9-1.6,2.6-1.6
				v-0.1c0-0.4-0.1-1-1-1c-0.4,0-0.8,0.1-1.1,0.3l-0.2-0.5c0.4-0.2,0.9-0.4,1.4-0.4c1.3,0,1.7,0.9,1.7,1.8V354.2z M670.1,353
				c-0.9,0-1.8,0.1-1.8,1c0,0.5,0.3,0.8,0.7,0.8c0.6,0,0.9-0.4,1.1-0.7c0-0.1,0-0.2,0-0.3V353z"/>
			<path d="M675.3,355c-0.2,0.1-0.7,0.3-1.3,0.3c-1.3,0-2.2-0.9-2.2-2.2c0-1.3,0.9-2.3,2.3-2.3c0.5,0,0.9,0.1,1.1,0.2l-0.2,0.6
				c-0.2-0.1-0.5-0.2-0.9-0.2c-1,0-1.5,0.7-1.5,1.6c0,1,0.6,1.6,1.5,1.6c0.4,0,0.7-0.1,1-0.2L675.3,355z"/>
			<path d="M676.6,353.2c0,1.1,0.7,1.5,1.5,1.5c0.6,0,0.9-0.1,1.2-0.2l0.1,0.6c-0.3,0.1-0.8,0.3-1.5,0.3c-1.3,0-2.1-0.9-2.1-2.2
				s0.8-2.3,2-2.3c1.4,0,1.8,1.2,1.8,2c0,0.2,0,0.3,0,0.4H676.6z M678.9,352.6c0-0.5-0.2-1.3-1.1-1.3c-0.8,0-1.2,0.7-1.2,1.3H678.9z
				"/>
		</g>
	</g>
</g>
</svg>
